<svg width="100" height="100" viewBox="0 0 100 100" fill="none" xmlns="http://www.w3.org/2000/svg">
<rect width="100" height="100" rx="10" fill="#006BB2"/>
<path d="M75.5794 30.1706C70.149 24.7407 62.9288 21.75 55.25 21.75C50.3136 21.75 45.4429 23.0225 41.1654 25.4313L42.2941 27.4349C45.8948 25.4076 49.9548 24.2673 54.1 24.0869V26.35H56.4V24.1061C62.6471 24.3729 68.4937 26.7948 73.1004 31.0235L65.8139 38.3104C65.367 38.7596 65.3676 39.4863 65.8162 39.9344C68.6429 42.7622 70.2 46.5142 70.2 50.5C70.2 58.7432 63.4938 65.45 55.25 65.45C51.2638 65.45 47.5111 63.8935 44.6838 61.0656C44.4682 60.85 44.1756 60.7287 43.8708 60.7287H43.8696C43.5641 60.7287 43.271 60.8512 43.0554 61.0678L34.9206 69.2032C34.705 69.4188 34.5836 69.7108 34.5836 70.0162C34.5836 70.3217 34.705 70.6136 34.9206 70.8293C40.351 76.2593 47.5712 79.25 55.25 79.25C71.1029 79.25 84 66.3529 84 50.5C84 42.8217 81.0093 35.6016 75.5794 30.1706ZM55.25 76.95C48.5701 76.95 42.2675 74.4906 37.3773 69.9994L43.8976 63.479C43.9745 63.5465 44.0579 63.604 44.1357 63.6699C44.3135 63.8206 44.4962 63.9629 44.6792 64.1057C44.928 64.3 45.1793 64.4892 45.4371 64.6687C45.6271 64.8011 45.8199 64.9278 46.0146 65.052C46.2783 65.2201 46.5452 65.3807 46.8168 65.5338C47.0167 65.6465 47.2173 65.7563 47.4212 65.8607C47.7003 66.0036 47.9834 66.1357 48.2694 66.2626C48.4762 66.3545 48.6825 66.4465 48.8927 66.5301C49.1875 66.6473 49.4871 66.7505 49.7882 66.851C49.9984 66.9211 50.2068 66.9949 50.4199 67.0568C50.736 67.1488 51.0571 67.2233 51.379 67.297C51.5839 67.344 51.7866 67.3981 51.9938 67.4376C52.3514 67.5059 52.7143 67.5525 53.0774 67.5981C53.254 67.6202 53.4281 67.6528 53.6061 67.6696C54.1495 67.7208 54.6974 67.75 55.25 67.75C64.7617 67.75 72.5 60.0122 72.5 50.5C72.5 49.9477 72.471 49.3999 72.4198 48.8566C72.403 48.6784 72.3702 48.504 72.3481 48.3269C72.3025 47.9637 72.2559 47.6008 72.1876 47.2432C72.1483 47.0369 72.0945 46.8352 72.0476 46.6311C71.9737 46.3085 71.8991 45.9867 71.8068 45.6697C71.745 45.4571 71.6716 45.2494 71.6016 45.0397C71.5008 44.7379 71.3976 44.4376 71.2801 44.1422C71.1968 43.9326 71.1051 43.7271 71.0135 43.5209C70.886 43.234 70.7536 42.9498 70.6103 42.6699C70.5066 42.4675 70.3977 42.2684 70.2858 42.0701C70.1314 41.7961 69.9696 41.5267 69.7997 41.2608C69.6769 41.0687 69.5521 40.8785 69.4216 40.6909C69.2396 40.4296 69.0477 40.1747 68.8506 39.9224C68.7108 39.7435 68.5718 39.5648 68.4244 39.3906C68.357 39.3108 68.2982 39.2255 68.2292 39.1469L74.749 32.6276C79.24 37.5176 81.7 43.8201 81.7 50.5C81.7 65.085 69.8344 76.95 55.25 76.95Z" fill="#EBEBEB"/>
<path d="M63.3898 28.2041L56.4 44.805V35.55H54.1V50.5C54.1 51.0469 54.4858 51.5186 55.0226 51.6275C55.0989 51.6422 55.1754 51.65 55.2506 51.65C55.7054 51.65 56.1277 51.3793 56.3102 50.9459L65.5102 29.0959L63.3898 28.2041Z" fill="#EBEBEB"/>
<path d="M51.8 34.4H49.5V36.7H51.8V34.4Z" fill="#EBEBEB"/>
<path d="M47.2 36.7V34.4H35.7V30.95C35.7 30.3143 35.1851 29.8 34.55 29.8H28.8C28.1649 29.8 27.65 30.3143 27.65 30.95V34.4H23.05C22.5957 34.4 22.1836 34.6672 21.9993 35.0828L17.3993 45.4328C17.3336 45.5799 17.3 45.7394 17.3 45.9V59.7H16.15C15.5149 59.7 15 60.2143 15 60.85V65.45C15 66.0857 15.5149 66.6 16.15 66.6H22.8335C24.0288 68.6589 26.2526 70.05 28.8 70.05C32.6049 70.05 35.7 66.9549 35.7 63.15C35.7 61.3819 35.026 59.7722 33.9284 58.55H38V56.25H35.7V47.05H40.3V44.75H35.7V36.7H47.2ZM28.8 67.75C26.2635 67.75 24.2 65.6869 24.2 63.15C24.2 60.6131 26.2635 58.55 28.8 58.55C31.3365 58.55 33.4 60.6131 33.4 63.15C33.4 65.6869 31.3365 67.75 28.8 67.75ZM33.4 56.25H28.8C24.9951 56.25 21.9 59.3451 21.9 63.15C21.9 63.5426 21.9405 63.9251 22.0039 64.3H17.3V62H18.45C19.0851 62 19.6 61.4857 19.6 60.85V52.8H23.05V50.5H19.6V47.05H33.4V56.25ZM33.4 44.75H20.2194L23.7974 36.7H33.4V44.75ZM33.4 34.4H29.95V32.1H33.4V34.4Z" fill="#EBEBEB"/>
<path d="M42.6 56.25H40.3V58.55H42.6V56.25Z" fill="#EBEBEB"/>
<path d="M29.95 62H27.65V64.3H29.95V62Z" fill="#EBEBEB"/>
<path d="M44.9 44.75H42.6V47.05H44.9V44.75Z" fill="#EBEBEB"/>
<path d="M27.65 50.5H25.35V52.8H27.65V50.5Z" fill="#EBEBEB"/>
<path d="M33.4 24.05H31.1V27.5H33.4V24.05Z" fill="#EBEBEB"/>
<path d="M27.3129 25.5369L25.6866 27.1632L27.9862 29.4629L29.6125 27.8365L27.3129 25.5369Z" fill="#EBEBEB"/>
<path d="M37.186 25.5371L34.8864 27.8367L36.5127 29.4631L38.8123 27.1634L37.186 25.5371Z" fill="#EBEBEB"/>
</svg>
