<svg width="100" height="100" viewBox="0 0 100 100" fill="none" xmlns="http://www.w3.org/2000/svg">
<rect width="100" height="100" rx="10" fill="#006BB3"/>
<path d="M34.7939 33.3328C35.247 33.3328 35.6142 32.9655 35.6142 32.5125C35.6142 32.0594 35.247 31.6922 34.7939 31.6922C34.3409 31.6922 33.9736 32.0594 33.9736 32.5125C33.9736 32.9655 34.3408 33.3328 34.7939 33.3328ZM28.2314 33.3328C28.6845 33.3328 29.0517 32.9655 29.0517 32.5125C29.0517 32.0594 28.6845 31.6922 28.2314 31.6922C27.7784 31.6922 27.4111 32.0594 27.4111 32.5125C27.4111 32.9655 27.7783 33.3328 28.2314 33.3328ZM31.5127 33.3328C31.9657 33.3328 32.333 32.9655 32.333 32.5125C32.333 32.0594 31.9657 31.6922 31.5127 31.6922C31.0596 31.6922 30.6924 32.0594 30.6924 32.5125C30.6924 32.9655 31.0595 33.3328 31.5127 33.3328ZM31.3328 42.023C31.3378 42.0231 31.3428 42.0231 31.3478 42.0231L38.7645 42.0249C39.2769 42.0249 39.7123 41.693 39.8476 41.1988C39.983 40.7044 39.7775 40.1971 39.3365 39.9362L38.2085 39.2688C40.0215 37.4719 41.0412 35.0201 41.025 32.4513C40.9925 27.3142 36.7879 23.0749 31.6523 23.001C26.3307 22.9245 22 27.2292 22 32.5127C22 37.5793 26.1746 41.9133 31.3328 42.023ZM25.9867 26.9061C27.4994 25.4151 29.4987 24.6118 31.6288 24.6414C35.8784 24.7025 39.3575 28.2106 39.3844 32.4616C39.3989 34.7551 38.4154 36.9361 36.686 38.4453C36.3968 38.6975 36.2453 39.0761 36.2803 39.4579C36.3153 39.8395 36.5333 40.1838 36.8631 40.3788L36.8713 40.3836L31.3559 40.3823C27.0923 40.3005 23.6406 36.7881 23.6406 32.5127C23.6406 30.3885 24.4738 28.3975 25.9867 26.9061ZM77.1797 77.3594H76.3594V65.1433C76.3594 61.9428 74.4682 59.0365 71.5321 57.735L67.209 55.8821C68.2609 55.5501 69.2113 54.9582 69.9846 54.1371C71.1513 52.8984 71.8203 51.2177 71.8203 49.5258C71.8203 47.9711 71.2772 46.5037 70.2494 45.2819C68.9638 43.7554 68.2558 41.8153 68.2558 39.8187V35.8878C68.2558 32.4449 66.915 29.2087 64.4805 26.7754C62.046 24.3407 58.8095 23 55.367 23C48.2607 23 42.4794 28.7814 42.4794 35.8877V39.6906C42.4798 41.7565 41.6679 43.7284 40.3486 45.318C38.6882 47.3185 38.3433 50.0232 39.4485 52.3766C40.2688 54.1236 41.7484 55.3786 43.5198 55.9099L39.2268 57.7767C36.2149 59.0441 34.2687 61.9744 34.2687 65.2419V74.8986C34.2687 75.3516 34.6359 75.7189 35.089 75.7189C35.5422 75.7189 35.9093 75.3516 35.9093 74.8986V65.2419C35.9093 62.6363 37.4612 60.2995 39.8721 59.2851L45.2531 56.9451V61.8828H42.7809C42.0842 61.8828 41.4173 62.1799 40.9513 62.6979C40.4854 63.2159 40.2603 63.9103 40.3338 64.6031L41.686 77.3594H22.8203C22.3672 77.3594 22 77.7267 22 78.1797C22 78.6327 22.3672 79 22.8203 79H77.1797C77.6328 79 78 78.6327 78 78.1797C78 77.7267 77.6328 77.3594 77.1797 77.3594ZM68.9942 46.3382C69.7697 47.2603 70.1797 48.3624 70.1797 49.5256C70.1797 50.8039 69.6733 52.0746 68.7903 53.0122C67.8554 54.0048 66.571 54.5514 65.1737 54.5514H64.1047L62.7004 53.9495C61.4738 53.4234 60.6346 52.2957 60.4631 50.9975C62.9942 49.6347 64.7187 46.96 64.7187 43.8896V37.7227C64.9588 37.739 65.1986 37.7478 65.4378 37.7478C65.8324 37.7478 66.2253 37.7254 66.6153 37.6812V39.8186C66.6152 42.2012 67.4602 44.5167 68.9942 46.3382ZM55.5664 59.2884C52.6318 59.3403 49.7192 58.9684 46.8938 58.1848V56.2317L47.131 56.1285C47.1328 56.1277 47.1347 56.1269 47.1367 56.1261L48.6001 55.4898C50.2291 54.7816 51.3803 53.331 51.7293 51.6359C52.4437 51.8436 53.1976 51.9572 53.9781 51.9572H56.6511C57.4345 51.9572 58.1913 51.8428 58.908 51.6335C59.2685 53.3209 60.4241 54.7584 62.0539 55.4575L63.6158 56.1269C63.6167 56.1273 63.6177 56.1277 63.6187 56.1281L63.7344 56.1776V58.0235C61.0796 58.8145 58.3349 59.24 55.5664 59.2884ZM63.7342 59.7315V61.8829H46.8938V59.8836C49.5531 60.5808 52.2835 60.9337 55.0325 60.9337C55.2199 60.9337 55.4075 60.932 55.5951 60.9288C58.3502 60.8806 61.0829 60.478 63.7342 59.7315ZM66.6152 36.027C64.3556 36.3323 61.8086 35.727 60.0538 34.3674C59.6958 34.09 59.1805 34.1552 58.9029 34.5134C58.6254 34.8715 58.6908 35.3867 59.0489 35.6642C60.1962 36.553 61.5799 37.1791 63.0781 37.4947V41.9606C62.6839 42.859 62.2451 43.6062 61.2558 44.4223C60.8393 44.766 60.3834 45.0513 59.8952 45.2777C59.4965 44.4998 58.6868 43.9658 57.7542 43.9658H55.8319C54.5059 43.9658 53.4273 45.0446 53.4273 46.3704C53.4273 47.6962 54.5059 48.775 55.8319 48.775H57.7542C58.8701 48.775 59.8107 48.0109 60.0808 46.9786C61.1781 46.5605 62.9674 45.0688 62.9678 45.0683C62.4123 48.0506 59.7921 50.3161 56.6512 50.3161H53.978C50.4342 50.3161 47.5511 47.4331 47.5511 43.8892V37.5483C50.3372 37.1116 52.9693 36.1688 55.3832 34.741C59.0587 32.5669 61.4162 29.726 62.839 27.4816C65.2733 29.6497 66.6581 32.758 66.6152 36.027ZM58.518 46.3727C58.5168 46.793 58.1747 47.1346 57.7541 47.1346H55.8318C55.4104 47.1346 55.0678 46.7918 55.0678 46.3706C55.0678 45.9494 55.4106 45.6066 55.8318 45.6066H57.7541C58.1746 45.6066 58.5166 45.948 58.518 46.3681V46.3727ZM44.12 35.8877C44.12 29.686 49.1654 24.6406 55.367 24.6406C57.5912 24.6406 59.7165 25.2827 61.5327 26.4779C60.2234 28.5767 58.0196 31.2757 54.5479 33.3293C52.1663 34.738 49.5539 35.6374 46.783 36.0025H46.7318C46.7314 36.0025 46.7311 36.0025 46.7307 36.0025C46.7302 36.0025 46.73 36.0025 46.7296 36.0025H44.1199L44.12 35.8877ZM40.9334 51.6792C40.1016 49.9076 40.3612 47.8716 41.6101 46.367C43.1771 44.4791 44.1218 42.1463 44.12 39.6906V37.6431H45.9105V43.8896C45.9105 46.9618 47.6372 49.6378 50.1705 50.9998C50.012 52.3078 49.1754 53.4505 47.9458 53.9851L46.6434 54.5514H45.4544C43.4977 54.5514 41.7654 53.4509 40.9334 51.6792ZM69.4897 64.4303L68.1192 77.3594H43.3358L41.9652 64.4303C41.9404 64.1959 42.0134 63.9704 42.171 63.7953C42.3287 63.62 42.5453 63.5236 42.7809 63.5236H68.674C68.9096 63.5236 69.1263 63.62 69.2839 63.7953C69.4415 63.9704 69.5146 64.1959 69.4897 64.4303ZM74.7188 77.3594H69.769L71.1212 64.6033C71.1947 63.9104 70.9695 63.216 70.5037 62.698C70.0376 62.18 69.3709 61.8829 68.674 61.8829H65.3748V56.8809L70.8765 59.2389C73.2106 60.2736 74.7188 62.5911 74.7188 65.1433V77.3594ZM55.7274 67.3242C54.0086 67.3242 52.6102 68.7226 52.6102 70.4414C52.6102 72.1603 54.0086 73.5586 55.7274 73.5586C57.4463 73.5586 58.8446 72.1603 58.8446 70.4414C58.8446 68.7226 57.4463 67.3242 55.7274 67.3242ZM55.7274 71.918C54.9132 71.918 54.2509 71.2556 54.2509 70.4414C54.2509 69.6272 54.9132 68.9649 55.7274 68.9649C56.5416 68.9649 57.204 69.6272 57.204 70.4414C57.204 71.2556 56.5417 71.918 55.7274 71.918Z" fill="#FEFEFE"/>
</svg>
