<svg width="225" height="52" viewBox="0 0 225 52" fill="none" xmlns="http://www.w3.org/2000/svg">
<path fill-rule="evenodd" clip-rule="evenodd" d="M28.8027 36.0079C28.5995 39.3276 25.4859 40.4331 24.3792 40.4331H12.6169V30.8771H24.1809C24.7806 30.8771 28.8027 31.7843 28.8027 36.0079ZM42.1739 37.115C42.1739 26.8535 34.3312 25.3465 34.3312 25.3465C34.3312 25.3465 39.9621 22.6315 39.9621 15.7922C39.9621 4.62677 30.4099 1.3087 26.5893 1.3087H0.64975V50.5921H28.3997C33.5284 50.5921 42.1739 45.3622 42.1739 37.115ZM27.0931 16.1937C27.0931 19.3102 24.1793 20.9213 23.0726 20.9213H12.6152V11.5669H22.1658C23.2725 11.5669 27.0931 12.674 27.0931 16.1937ZM79.6759 25.9496C79.6759 33.093 75.6538 40.0315 68.8171 40.0315C61.8796 40.0315 57.8575 33.0913 57.8575 25.9496C57.8575 19.1102 61.8796 12.2709 68.8171 12.4725C75.6554 12.4725 79.6759 19.3102 79.6759 25.9496ZM91.8429 25.9496C91.8429 12.2709 82.5929 0.705556 68.8187 0.705556C54.843 0.705556 45.4923 12.2725 45.4923 25.9496C45.6938 40.0315 54.8414 52 68.8187 52C82.5913 52 92.0411 40.0315 91.8429 25.9496ZM134.067 35.8063C134.067 15.7905 106.922 24.2394 108.531 14.885C109.135 11.3653 112.754 10.8614 115.871 10.8614C121.197 10.8614 124.92 15.0866 124.92 15.0866L132.259 7.34171C126.73 2.21259 122.708 0 114.966 0C105.013 0 95.8617 6.2346 95.8617 16.3937C95.8617 30.6772 111.648 30.6772 117.18 32.3858C120.496 33.2913 121.401 34.1968 121.198 36.4094C121.198 38.8252 117.379 41.137 114.765 41.137C109.135 41.5386 105.817 38.622 101.897 34.6992L94.3569 42.8472C101.194 49.485 107.226 52 114.766 51.7984C124.517 51.4977 134.067 45.9637 134.067 35.8063ZM180.218 40.2347L170.264 33.9969C170.264 33.9969 166.242 40.0315 161.616 40.0315C154.277 40.2347 150.256 32.8898 150.256 25.7496C150.256 18.7087 153.976 12.4725 160.915 12.4725C164.937 12.4725 167.752 14.8866 169.561 18.2063L179.111 11.9717C177.503 9.55918 173.783 0.907142 161.616 0.505591C148.446 0.204835 137.989 12.4741 137.989 25.7513C137.989 40.0331 146.434 51.2977 162.019 51.2977C169.962 51.4977 176.196 46.4693 180.218 40.2347ZM224.355 50.5921V1.30707H211.987V19.8125H196.908V1.30707H184.24V50.5905H196.605V30.8771H211.987V50.5921H224.355Z" fill="#E1E1E1"/>
</svg>
