<svg width="46" height="32" viewBox="0 0 46 32" fill="none" xmlns="http://www.w3.org/2000/svg">
<path d="M44.2031 14.2222H1.79688C0.804461 14.2222 0 15.0181 0 16C0 16.9819 0.804461 17.7778 1.79688 17.7778H44.2031C45.1955 17.7778 46 16.9819 46 16C46 15.0181 45.1955 14.2222 44.2031 14.2222Z" fill="#FEFEFE"/>
<path d="M45.0702 0H23.1275C22.6139 0 22.1977 0.795911 22.1977 1.77778C22.1977 2.75964 22.6139 3.55556 23.1275 3.55556H45.0702C45.5837 3.55556 46 2.75964 46 1.77778C46 0.795911 45.5837 0 45.0702 0Z" fill="#FEFEFE"/>
<path d="M44.5688 28.4444H10.7917C10.0012 28.4444 9.36047 29.2404 9.36047 30.2222C9.36047 31.2041 10.0012 32 10.7917 32H44.5688C45.3592 32 46 31.2041 46 30.2222C46 29.2404 45.3592 28.4444 44.5688 28.4444Z" fill="#FEFEFE"/>
</svg>
