<svg width="174" height="68" viewBox="0 0 174 68" fill="none" xmlns="http://www.w3.org/2000/svg">
<path d="M173.584 14.9174C173.58 14.8931 173.572 14.8695 173.567 14.8453C173.548 14.7475 173.523 14.6508 173.493 14.5555C173.479 14.5148 173.464 14.4755 173.449 14.4355C173.419 14.3573 173.386 14.2804 173.348 14.2049C173.328 14.1642 173.308 14.1239 173.285 14.0839C173.272 14.061 173.263 14.0371 173.249 14.0146C173.215 13.9578 173.175 13.9062 173.136 13.8529C173.116 13.8242 173.098 13.7945 173.076 13.7668C172.998 13.666 172.912 13.572 172.821 13.4853C172.816 13.4808 172.813 13.4757 172.808 13.4712C172.792 13.4559 172.773 13.4449 172.756 13.4302C172.682 13.3639 172.604 13.3021 172.523 13.2454C172.488 13.2208 172.452 13.1979 172.416 13.1753C172.342 13.1292 172.266 13.0875 172.188 13.0496C172.152 13.0318 172.116 13.013 172.079 12.9969C171.971 12.9501 171.859 12.9091 171.744 12.8777C171.74 12.8763 171.735 12.8743 171.731 12.8732C171.613 12.8418 171.491 12.8213 171.368 12.8073C171.328 12.8029 171.288 12.8022 171.249 12.7994C171.194 12.796 171.14 12.7888 171.084 12.7888H120.556V2.56248C120.556 2.48765 120.551 2.41384 120.545 2.34071C120.544 2.3308 120.544 2.32055 120.543 2.31064C120.532 2.19617 120.512 2.08443 120.486 1.97474C120.481 1.95253 120.475 1.93032 120.469 1.90845C120.44 1.79603 120.405 1.68565 120.362 1.57972C120.317 1.4714 120.263 1.36787 120.205 1.2674C120.193 1.2469 120.181 1.22674 120.169 1.20692C120.109 1.1109 120.046 1.01761 119.974 0.930474C119.973 0.928082 119.97 0.926375 119.969 0.923983C119.9 0.840606 119.825 0.763377 119.746 0.689568C119.727 0.671457 119.708 0.653689 119.688 0.63592C119.606 0.563136 119.52 0.493771 119.429 0.432263C119.426 0.430213 119.423 0.428844 119.42 0.426794C119.33 0.366653 119.235 0.314029 119.138 0.265506C119.118 0.255597 119.098 0.245688 119.078 0.23612C118.877 0.142491 118.662 0.075513 118.437 0.0375831C118.411 0.0331409 118.385 0.0290443 118.359 0.0256272C118.248 0.010592 118.134 0 118.019 0H55.9969C55.8812 0 55.7679 0.010592 55.6563 0.0256272C55.6302 0.0290443 55.6041 0.0331409 55.5784 0.0375831C55.3535 0.075513 55.1386 0.142491 54.9376 0.23612C54.9174 0.245688 54.8974 0.255597 54.8774 0.265506C54.7803 0.314029 54.6856 0.366653 54.5959 0.426794C54.5929 0.428844 54.5898 0.430213 54.5868 0.432263C54.4955 0.494113 54.4099 0.563136 54.3273 0.63592C54.3073 0.653347 54.2884 0.671457 54.2688 0.689568C54.1903 0.763377 54.1152 0.840606 54.0465 0.923983C54.0448 0.926375 54.0424 0.928082 54.0407 0.930474C53.9694 1.01761 53.9061 1.1109 53.8465 1.20692C53.834 1.22708 53.8218 1.2469 53.81 1.2674C53.7518 1.36752 53.6984 1.47106 53.6537 1.57972C53.6101 1.68565 53.5755 1.79603 53.5461 1.90845C53.5404 1.93066 53.5343 1.95253 53.5292 1.97474C53.5038 2.08443 53.4832 2.19583 53.472 2.31064C53.471 2.32055 53.4713 2.3308 53.4707 2.34071C53.4646 2.41384 53.4595 2.48765 53.4595 2.56248V12.7892H51.8206C50.4193 12.7892 49.2832 13.9367 49.2832 15.352C49.2832 16.7674 50.4193 17.9148 51.8206 17.9148H55.9969C57.3983 17.9148 58.5344 16.7674 58.5344 15.352V8.76623L62.5358 12.8227V21.9904H28.809L26.3541 17.9148H40.9939C42.3952 17.9148 43.5313 16.7674 43.5313 15.352C43.5313 13.9367 42.3952 12.7892 40.9939 12.7892H21.8398C21.8243 12.7892 21.8094 12.7923 21.7942 12.7923C21.7783 12.7926 21.7624 12.7902 21.7465 12.7906C21.6991 12.7923 21.6531 12.8008 21.6064 12.8053C21.5536 12.8104 21.5005 12.8138 21.4484 12.822C21.3865 12.8319 21.3263 12.8466 21.2654 12.8609C21.2146 12.8729 21.1635 12.8832 21.1141 12.8982C21.0543 12.9163 20.9964 12.9395 20.9382 12.9621C20.8905 12.9805 20.8421 12.9969 20.7958 13.0178C20.7383 13.0441 20.6838 13.0755 20.6286 13.106C20.5847 13.1302 20.5397 13.1521 20.4974 13.1787C20.4429 13.2132 20.3918 13.2529 20.34 13.2915C20.3008 13.3205 20.2602 13.3472 20.2226 13.3786C20.1705 13.422 20.1232 13.4709 20.0748 13.5187C20.042 13.5509 20.0071 13.5806 19.976 13.6144C19.9246 13.6705 19.8789 13.7323 19.8326 13.7931C19.8092 13.8239 19.7828 13.8519 19.7608 13.8837C19.6949 13.979 19.6346 14.0791 19.5812 14.1844L0.672117 51.5108C0.613587 51.6263 0.567236 51.7455 0.526975 51.8665C0.514119 51.9051 0.504646 51.9444 0.493819 51.9834C0.470136 52.0678 0.450513 52.1528 0.435627 52.2386C0.428184 52.282 0.421079 52.3251 0.416004 52.3688C0.405178 52.4587 0.400103 52.5489 0.398749 52.6391C0.398073 52.6743 0.395366 52.7092 0.396043 52.744C0.399088 52.8677 0.410252 52.9907 0.431229 53.1127C0.435289 53.137 0.44307 53.1606 0.447807 53.1848C0.46743 53.2825 0.491789 53.3792 0.522577 53.4746C0.535772 53.5152 0.551335 53.5545 0.566559 53.5945C0.596332 53.6728 0.629488 53.7497 0.667042 53.8252C0.687342 53.8658 0.707641 53.9062 0.729971 53.9461C0.742827 53.969 0.7523 53.993 0.766172 54.0155C0.800343 54.0722 0.840604 54.1238 0.878835 54.1771C0.899134 54.2058 0.917065 54.2356 0.939057 54.2632C1.01755 54.364 1.10281 54.458 1.19449 54.5448C1.19923 54.5493 1.20227 54.5544 1.20701 54.5588C1.27231 54.62 1.34065 54.6764 1.41068 54.7293C1.42557 54.7406 1.44181 54.7505 1.45703 54.7615C1.52199 54.8083 1.58864 54.852 1.65699 54.892C1.68033 54.9057 1.70401 54.919 1.72803 54.932C1.79773 54.9699 1.86912 55.0044 1.94152 55.0355C1.95877 55.043 1.97569 55.0516 1.99294 55.0584C2.0826 55.0943 2.17395 55.125 2.26665 55.1503C2.28796 55.1561 2.30996 55.1602 2.33127 55.1657C2.4057 55.1838 2.48047 55.1989 2.55592 55.2101C2.58366 55.2142 2.61107 55.2187 2.63915 55.2217C2.73523 55.233 2.83199 55.2405 2.92909 55.2405H53.4592V65.4372C53.4592 65.5127 53.4639 65.5868 53.4703 65.6607C53.471 65.6702 53.4707 65.6795 53.4717 65.689C53.4828 65.8038 53.5031 65.9156 53.5289 66.0253C53.5339 66.0475 53.54 66.0693 53.5458 66.0916C53.5752 66.204 53.6097 66.3144 53.6534 66.4203C53.698 66.5286 53.7511 66.6318 53.8097 66.7319C53.8218 66.7528 53.834 66.7729 53.8465 66.7934C53.9058 66.8891 53.9694 66.9824 54.0401 67.0692C54.0424 67.0719 54.0451 67.0743 54.0472 67.0774C54.1152 67.1601 54.1899 67.2366 54.2678 67.3098C54.2874 67.3282 54.307 67.3463 54.3273 67.3644C54.4095 67.4372 54.4948 67.5059 54.5858 67.5677C54.5892 67.5701 54.5926 67.5718 54.5959 67.5739C54.6853 67.6337 54.7796 67.6863 54.8764 67.7345C54.8967 67.7444 54.9167 67.7543 54.937 67.7639C55.1379 67.8575 55.3524 67.9245 55.5778 67.9624C55.6038 67.9669 55.6295 67.971 55.6556 67.9744C55.7672 67.9894 55.8806 68 55.9963 68H62.6045C64.0058 68 65.1419 66.8525 65.1419 65.4372C65.1419 64.0218 64.0058 62.8744 62.6045 62.8744H62.1064L66.1264 58.7991H107.887L111.907 62.8744H73.5869C72.1855 62.8744 71.0494 64.0218 71.0494 65.4372C71.0494 66.8525 72.1855 68 73.5869 68H118.018C118.134 68 118.247 67.9894 118.359 67.9744C118.385 67.971 118.411 67.9669 118.437 67.9624C118.662 67.9245 118.877 67.8575 119.078 67.7639C119.098 67.7543 119.118 67.7444 119.138 67.7345C119.235 67.6863 119.329 67.6337 119.419 67.5739C119.422 67.5715 119.426 67.5698 119.429 67.5677C119.52 67.5062 119.605 67.4372 119.687 67.3644C119.708 67.3467 119.727 67.3282 119.747 67.3098C119.825 67.2363 119.899 67.1597 119.967 67.0774C119.97 67.0746 119.972 67.0723 119.974 67.0692C120.046 66.9824 120.109 66.8894 120.168 66.7934C120.181 66.7729 120.193 66.7528 120.205 66.7319C120.263 66.6318 120.317 66.5283 120.361 66.4203C120.404 66.3144 120.439 66.204 120.468 66.0916C120.474 66.0693 120.48 66.0475 120.485 66.0253C120.511 65.9156 120.531 65.8038 120.543 65.6894C120.544 65.6795 120.543 65.6699 120.544 65.6603C120.55 65.5869 120.555 65.5127 120.555 65.4379V55.2416H122.278C123.68 55.2416 124.816 54.0941 124.816 52.6787C124.816 51.2634 123.68 50.1159 122.278 50.1159H118.018C116.616 50.1159 115.48 51.2634 115.48 52.6787V59.2344L111.479 55.1783V46.0403H145.206L147.661 50.1159H133.274C131.873 50.1159 130.737 51.2634 130.737 52.6787C130.737 54.0941 131.873 55.2416 133.274 55.2416H152.175C152.206 55.2416 152.237 55.2412 152.268 55.2399C152.315 55.2381 152.361 55.2296 152.408 55.2252C152.461 55.22 152.514 55.2166 152.566 55.2084C152.628 55.1985 152.688 55.1838 152.749 55.1695C152.8 55.1575 152.851 55.1473 152.9 55.1322C152.96 55.1141 153.018 55.0909 153.076 55.0687C153.123 55.0502 153.172 55.0338 153.219 55.0126C153.276 54.9867 153.33 54.9552 153.385 54.9251C153.429 54.9009 153.475 54.8787 153.518 54.8517C153.571 54.8178 153.621 54.7785 153.673 54.7406C153.713 54.7109 153.754 54.6839 153.792 54.6521C153.843 54.6097 153.889 54.5619 153.937 54.5154C153.971 54.4823 154.007 54.4515 154.039 54.4163C154.089 54.3617 154.133 54.3019 154.179 54.2427C154.203 54.2103 154.231 54.1809 154.254 54.1471C154.32 54.0517 154.38 53.9516 154.433 53.8464L173.342 16.5203C173.401 16.4048 173.447 16.2856 173.487 16.1646C173.501 16.125 173.51 16.0857 173.521 16.0467C173.545 15.9623 173.565 15.8772 173.58 15.7915C173.587 15.7481 173.594 15.705 173.599 15.6613C173.61 15.5714 173.615 15.4812 173.616 15.391C173.617 15.3558 173.62 15.3209 173.619 15.2861C173.616 15.1624 173.605 15.0394 173.584 14.9174ZM118.018 17.9148H162.088L155.504 21.9904H111.479V12.8227L115.481 8.76623V15.352C115.481 16.7674 116.617 17.9148 118.018 17.9148ZM62.1068 5.12531H111.908L107.888 9.20089H66.1271L62.1068 5.12531ZM22.0313 20.6007L24.4774 24.6612L15.8609 41.6682L9.30215 45.7284L22.0313 20.6007ZM62.5358 55.1777L58.5344 59.2338V52.6781C58.5344 51.2627 57.3983 50.1152 55.9969 50.1152H11.9272L18.5111 46.0397H62.5358V55.1777ZM145.081 40.914H108.942C107.541 40.914 106.405 42.0615 106.405 43.4768V53.6735H67.6107V43.4768C67.6107 42.0615 66.4746 40.914 65.0732 40.914H21.9441L28.9346 27.1161H65.0732C66.4746 27.1161 67.6107 25.9686 67.6107 24.5532V14.3265H106.404V24.5532C106.404 25.9686 107.54 27.1161 108.942 27.1161H152.071L145.081 40.914ZM151.984 47.4294L149.538 43.3688L158.154 26.3619L164.713 22.3017L151.984 47.4294Z" fill="#E1E1E1"/>
</svg>
