<svg width="100" height="100" viewBox="0 0 100 100" fill="none" xmlns="http://www.w3.org/2000/svg">
<rect width="100" height="100" rx="10" fill="#006BB3"/>
<path d="M28.1317 55.9543L28.3899 54.1149L32.0688 54.6314L31.8106 56.4709L28.1317 55.9543Z" fill="#EBEBEB"/>
<path d="M35.7749 68.292L36.0332 66.452L37.8732 66.7103L37.6149 68.5503L35.7749 68.292Z" fill="#EBEBEB"/>
<path d="M77.9508 44.6722L77.7891 42.8216L59.1522 44.453C58.5365 44.5063 57.9559 44.7627 57.5019 45.182C57.0478 45.6012 56.746 46.1595 56.6438 46.769L55.7984 51.8433C55.7697 52.1028 55.796 52.3654 55.8756 52.6141C55.9552 52.8628 56.0863 53.0919 56.2604 53.2865C56.4345 53.4811 56.6476 53.6368 56.8859 53.7435C57.1242 53.8502 57.3824 53.9054 57.6435 53.9057C57.6981 53.906 57.7526 53.9035 57.807 53.8982L73.3363 52.5372L74.4707 65.4942L68.8446 65.9866C68.4902 64.4632 67.5981 63.1189 66.332 62.2006C65.0659 61.2823 63.511 60.8517 61.9529 60.988C60.3948 61.1242 58.9382 61.8182 57.8507 62.9423C56.7633 64.0664 56.118 65.5452 56.0335 67.107L53.1842 67.3559C53.0628 67.3671 52.9405 67.3539 52.8243 67.3171C52.7082 67.2802 52.6006 67.2205 52.5079 67.1413C52.414 67.0633 52.3365 66.9675 52.2799 66.8594C52.2233 66.7513 52.1887 66.633 52.1781 66.5115L52.0972 65.5824L54.8731 65.339L54.7106 63.4884L51.9347 63.7346L51.8511 62.7796L55.123 60.8138C55.244 60.7411 55.3467 60.6418 55.4236 60.5235C55.5004 60.4051 55.5493 60.2709 55.5665 60.1308C55.5837 59.9908 55.5687 59.8487 55.5228 59.7152C55.4769 59.5818 55.4012 59.4606 55.3014 59.3608L54.1002 58.1606L55.3014 56.9593C55.4052 56.8552 55.4828 56.728 55.5279 56.5881C55.5729 56.4481 55.5841 56.2995 55.5605 56.1544C55.5369 56.0093 55.4793 55.8719 55.3922 55.7534C55.3052 55.6349 55.1913 55.5388 55.0599 55.4729L51.8576 53.8713C51.9412 53.5434 52.0229 53.2145 52.1298 52.894L55.6247 44.4112C55.8182 43.938 56.1385 43.5274 56.5505 43.2246C56.9624 42.9218 57.4499 42.7387 57.9593 42.6953L77.1091 41.023C77.3193 41.0058 77.5308 41.0114 77.7399 41.0398L78 39.2003C77.6513 39.152 77.2982 39.1426 76.9474 39.1725L57.7967 40.8447C56.9478 40.9172 56.1353 41.2227 55.4489 41.7274C54.7624 42.2321 54.2285 42.9164 53.906 43.7051L50.3934 52.252C49.9377 53.6188 49.6723 55.0418 49.6047 56.4809C49.4029 56.0182 49.1486 55.5802 48.8466 55.1756C48.3342 54.4921 47.6914 53.9169 46.9554 53.4833C46.2193 53.0497 45.4046 52.7664 44.5583 52.6497L43.0784 52.4416L48.0235 49.1454L49.3427 50.4646L50.6563 49.151L48.7983 47.293C48.6465 47.141 48.4466 47.0465 48.2329 47.0253C48.0191 47.0041 47.8046 47.0577 47.6259 47.1768L40.9556 51.6231L34.8074 41.7003C34.4488 41.1214 33.9672 40.6285 33.3967 40.2567C32.8263 39.8848 32.181 39.6431 31.5066 39.5487L22.2583 38.2481L22 40.0885L31.2474 41.3891C31.6522 41.4454 32.0397 41.5902 32.3822 41.8132C32.7246 42.0362 33.0138 42.332 33.229 42.6795L33.8161 43.6261L22.2583 42.0022L22 43.8417L26.0143 44.4065L25.2385 49.9258L22.2583 49.5077L22 51.3472L24.9803 51.7662L23.1696 64.646L22.2583 64.5178L22 66.3572L30.3435 67.5297C30.3499 69.2502 31.0378 70.8981 32.2567 72.1124C33.4756 73.3268 35.126 74.0086 36.8466 74.0086C38.2526 74.0046 39.6196 73.5457 40.7433 72.7006C41.867 71.8556 42.6872 70.6696 43.0812 69.3199L45.9137 69.7175C46.0439 69.736 46.1752 69.7453 46.3067 69.7453C46.9778 69.744 47.6259 69.5006 48.132 69.0598C48.638 68.6189 48.9679 68.0103 49.0612 67.3457L49.8788 61.5236L50.3303 66.6731C50.3925 67.3658 50.711 68.0103 51.2233 68.4806C51.7357 68.9509 52.4051 69.2131 53.1006 69.2158C53.1823 69.2158 53.2641 69.2158 53.3458 69.2056L56.1961 68.9557C56.5319 70.3803 57.3379 71.6501 58.4841 72.5603C59.6303 73.4705 61.0497 73.968 62.5133 73.9724C62.7029 73.9724 62.8933 73.964 63.0847 73.9473C64.6422 73.8122 66.0986 73.1194 67.1862 71.9964C68.2737 70.8733 68.9194 69.3954 69.0044 67.8344L77.9489 67.0512L77.7873 65.2006L76.3194 65.3288L75.186 52.3719L77.9489 52.1303L77.7873 50.2797L75.0244 50.5287L74.5394 44.9686L77.9508 44.6722ZM48.253 59.7278L48.1229 60.6475L44.444 60.1301L44.7023 58.2906L48.2892 58.7941C48.3082 59.1058 48.296 59.4186 48.253 59.7278ZM27.8546 44.6648L35.0852 45.6811V45.6755L38.9136 51.8479L27.078 50.185L27.8546 44.6648ZM41.4405 68.1512C41.3127 69.061 40.918 69.9125 40.3062 70.598C39.6944 71.2835 38.893 71.7722 38.0035 72.0022C37.114 72.2322 36.1762 72.1932 35.3088 71.8902C34.4414 71.5873 33.6833 71.0338 33.1305 70.3C32.6113 69.611 32.2943 68.791 32.2149 67.9319C32.1355 67.0728 32.297 66.2086 32.6811 65.4362C33.0653 64.6637 33.657 64.0135 34.3899 63.5584C35.1229 63.1033 35.968 62.8613 36.8308 62.8595C37.0502 62.8595 37.2693 62.8747 37.4867 62.905C38.7059 63.078 39.8068 63.7274 40.548 64.7108C41.2892 65.6942 41.6101 66.9314 41.4405 68.1512ZM46.1692 67.878L43.3357 67.4795C43.3318 66.2737 42.9923 65.0928 42.3553 64.069C41.7184 63.0452 40.8091 62.2188 39.7291 61.6824C38.6492 61.146 37.4413 60.9208 36.2407 61.0318C35.04 61.1429 33.8939 61.586 32.9308 62.3114C31.8093 63.1547 30.9938 64.341 30.6082 65.6902L25.0091 64.9043L26.8197 52.0291L44.2963 54.4817C45.0126 54.5646 45.6974 54.8227 46.2903 55.2331C46.8831 55.6435 47.3658 56.1936 47.6956 56.8349L44.9578 56.4502C44.4701 56.3816 43.9751 56.5094 43.5816 56.8055C43.188 57.1017 42.9282 57.5419 42.8591 58.0296L42.6009 59.869C42.532 60.3568 42.6596 60.8521 42.9558 61.2458C43.252 61.6395 43.6924 61.8995 44.1802 61.9686L47.86 62.4851L47.6018 64.3255L44.8417 63.9381L44.5834 65.7775L47.3435 66.1659L47.2134 67.0856C47.1795 67.3289 47.0506 67.5489 46.8549 67.6974C46.6592 67.8459 46.4127 67.9108 46.1692 67.878ZM53.0764 56.5571L52.1298 57.5037C51.9556 57.678 51.8578 57.9142 51.8578 58.1606C51.8578 58.4069 51.9556 58.6432 52.1298 58.8174L53.147 59.8328L51.6708 60.72L51.4767 58.5015C51.3991 57.5928 51.41 56.6787 51.5092 55.7721L53.0764 56.5571ZM67.1473 67.067C67.2274 67.9823 67.0343 68.9007 66.5924 69.7062C66.1505 70.5117 65.4797 71.1681 64.6648 71.5923C63.8498 72.0165 62.9274 72.1896 62.0141 72.0895C61.1008 71.9895 60.2377 71.6209 59.5339 71.0303C58.8302 70.4397 58.3173 69.6537 58.0603 68.7716C57.8033 67.8895 57.8136 66.9511 58.09 66.0749C58.3663 65.1987 58.8963 64.4241 59.6129 63.8491C60.3295 63.2741 61.2005 62.9246 62.1157 62.8446C62.2532 62.8326 62.3944 62.8261 62.5282 62.8261C63.6888 62.8282 64.8065 63.2646 65.6613 64.0495C66.5162 64.8344 67.0463 65.9109 67.1473 67.067ZM73.1756 50.6978L57.6379 52.096L58.4786 47.0793C58.5127 46.8761 58.6133 46.69 58.7646 46.5503C58.916 46.4105 59.1095 46.325 59.3148 46.3073L72.6925 45.1367L73.1756 50.6978Z" fill="#EBEBEB"/>
<path d="M58.6773 55.6824L62.3792 55.359L62.5409 57.21L58.839 57.5334L58.6773 55.6824Z" fill="#EBEBEB"/>
<path d="M61.486 66.6363L63.3369 66.4746L63.4986 68.3256L61.6476 68.4873L61.486 66.6363Z" fill="#EBEBEB"/>
<path d="M37.2655 42.0951L38.5792 40.7815L37.378 39.5803H39.7804C40.0268 39.5803 40.2631 39.4824 40.4373 39.3082C40.6115 39.1339 40.7094 38.8976 40.7094 38.6513V36.2488L43.7686 39.3081C43.9429 39.4822 44.1791 39.5801 44.4255 39.5801C44.6718 39.5801 44.9081 39.4822 45.0823 39.3081L48.1415 36.2488V38.6513C48.1415 38.8976 48.2394 39.1339 48.4136 39.3082C48.5878 39.4824 48.8241 39.5803 49.0705 39.5803H52.402L50.2717 41.7105L51.5854 43.0241L55.3014 39.3081C55.4313 39.1781 55.5198 39.0126 55.5556 38.8324C55.5914 38.6523 55.573 38.4655 55.5027 38.2958C55.4324 38.126 55.3134 37.981 55.1606 37.8789C55.0079 37.7768 54.8283 37.7223 54.6446 37.7222H49.9995V34.0062C49.9995 33.8225 49.945 33.6429 49.8429 33.4902C49.7408 33.3374 49.5957 33.2184 49.426 33.1481C49.2563 33.0778 49.0695 33.0594 48.8893 33.0952C48.7092 33.131 48.5436 33.2195 48.4137 33.3494L44.4255 37.3376L40.4372 33.3494C40.3073 33.2195 40.1418 33.131 39.9616 33.0952C39.7814 33.0594 39.5946 33.0778 39.4249 33.1481C39.2552 33.2184 39.1101 33.3374 39.008 33.4902C38.9059 33.6429 38.8514 33.8225 38.8514 34.0062V37.7222H35.1353C34.9516 37.7223 34.772 37.7768 34.6193 37.8789C34.4665 37.981 34.3475 38.126 34.2772 38.2958C34.2069 38.4655 34.1885 38.6523 34.2243 38.8324C34.2602 39.0126 34.3486 39.1781 34.4785 39.3081L37.2655 42.0951Z" fill="#EBEBEB"/>
<path d="M42.8461 32.1482H44.7042C44.7046 31.9684 44.7433 31.7908 44.8178 31.6273C44.8923 31.4637 45.0008 31.3179 45.1362 31.1996C45.6931 30.6241 46.0044 29.8545 46.0044 29.0536C46.0044 28.2527 45.6931 27.4832 45.1362 26.9076C45.0002 26.7892 44.8912 26.643 44.8165 26.4789C44.7418 26.3148 44.7032 26.1366 44.7032 25.9563C44.7032 25.776 44.7418 25.5978 44.8165 25.4337C44.8912 25.2696 45.0002 25.1234 45.1362 25.005C45.6961 24.431 46.0081 23.6599 46.0048 22.858H44.1468C44.1465 23.0383 44.1078 23.2164 44.0331 23.3805C43.9584 23.5445 43.8496 23.6908 43.7138 23.8093C43.1572 24.3854 42.8461 25.1552 42.8461 25.9563C42.8461 26.7574 43.1572 27.5271 43.7138 28.1032C43.8496 28.2215 43.9584 28.3675 44.033 28.5313C44.1076 28.6952 44.1462 28.8731 44.1462 29.0532C44.1462 29.2332 44.1076 29.4111 44.033 29.575C43.9584 29.7388 43.8496 29.8848 43.7138 30.0031C43.1538 30.5762 42.8421 31.3469 42.8461 32.1482Z" fill="#EBEBEB"/>
<path d="M48.4202 30.2901H50.2782C50.2786 30.1104 50.3174 29.9328 50.3919 29.7693C50.4664 29.6057 50.5749 29.4599 50.7102 29.3416C51.2672 28.766 51.5785 27.9965 51.5785 27.1956C51.5785 26.3947 51.2672 25.6251 50.7102 25.0496C50.5743 24.9311 50.4653 24.785 50.3906 24.6209C50.3159 24.4568 50.2773 24.2786 50.2773 24.0983C50.2773 23.918 50.3159 23.7398 50.3906 23.5757C50.4653 23.4116 50.5743 23.2654 50.7102 23.147C51.2702 22.573 51.5822 21.8019 51.5789 21H49.7208C49.7206 21.1803 49.6819 21.3584 49.6072 21.5224C49.5325 21.6865 49.4237 21.8327 49.2879 21.9513C48.7313 22.5274 48.4202 23.2972 48.4202 24.0983C48.4202 24.8993 48.7313 25.6691 49.2879 26.2452C49.4237 26.3635 49.5325 26.5094 49.6071 26.6733C49.6817 26.8372 49.7202 27.0151 49.7202 27.1951C49.7202 27.3752 49.6817 27.5531 49.6071 27.717C49.5325 27.8808 49.4237 28.0268 49.2879 28.145C48.7279 28.7182 48.4161 29.4888 48.4202 30.2901Z" fill="#EBEBEB"/>
</svg>
