<svg width="125" height="125" viewBox="0 0 125 125" fill="none" xmlns="http://www.w3.org/2000/svg">
<path d="M100.751 67.5922H109.992V75.4559H91.4563V48.5663H100.751V67.5922Z" fill="#E1E1E1"/>
<path d="M96.4356 48.5663H91.4563V75.4559L96.4356 75.4557V48.5663Z" fill="#E1E1E1"/>
<path d="M79.7397 67.2284V48.9203C79.7397 48.7248 79.5829 48.5663 79.3893 48.5663H70.8027C70.6092 48.5663 70.4523 48.7248 70.4523 48.9203V57.7226C70.4523 57.8312 70.403 57.934 70.3182 58.0011L57.8573 67.8859C57.7301 67.9867 57.5513 67.9867 57.4242 67.8859L55.5368 66.3873C55.3582 66.2455 55.3582 65.9723 55.5368 65.8307L67.6333 56.2245C67.8119 56.0827 67.8119 55.8097 67.6333 55.6679L63.0223 52.0048C62.8952 51.9037 62.7162 51.9037 62.589 52.0048L50.2238 61.828C50.0967 61.9291 49.9174 61.9291 49.7903 61.8278L47.9072 60.3297C47.7289 60.1879 47.7291 59.9149 47.9074 59.7733L60.003 50.1637C60.1813 50.0219 60.1813 49.7489 60.003 49.6071L55.392 45.944C55.2649 45.8429 55.0861 45.8429 54.959 45.944L41.5618 56.5805C41.3842 56.7216 41.1193 56.6598 41.0277 56.4511C39.2112 52.3163 34.7918 48.5663 28.7234 48.5663H17.1354C16.9418 48.5663 16.7849 48.7248 16.7849 48.9203V75.0956C16.7849 75.2911 16.9418 75.4496 17.1354 75.4496H28.7232C34.1843 75.4496 38.9236 72.2274 41.0306 67.5602C41.1239 67.3536 41.3871 67.2936 41.5635 67.434L54.9587 78.0768C55.0858 78.1778 55.2649 78.1778 55.392 78.0768L69.8851 66.5592C70.115 66.3766 70.4523 66.5419 70.4523 66.8375V75.1022C70.4523 75.2977 70.6092 75.4562 70.8027 75.4562H88.6356C88.8292 75.4562 88.986 75.2977 88.986 75.1022V67.9366C88.986 67.7411 88.8292 67.5826 88.6356 67.5826H80.0901C79.8966 67.5824 79.7397 67.424 79.7397 67.2284ZM27.7415 67.7247H26.0728C25.8793 67.7247 25.7224 67.5663 25.7224 67.3707V56.6417C25.7224 56.4462 25.8793 56.2877 26.0728 56.2877H27.7954C31.1724 56.2877 33.5635 58.3485 33.5635 62.0045C33.5637 65.9886 30.8798 67.7247 27.7415 67.7247Z" fill="#E1E1E1"/>
<path d="M62.8327 0C28.6689 0 0.969543 27.9814 0.969543 62.497C0.969543 97.0172 28.6689 125 62.8327 125C97.0029 125 124.701 97.0169 124.701 62.497C124.7 27.9814 97.0029 0 62.8327 0ZM62.8327 118.234C32.3625 118.234 7.66026 93.2806 7.66026 62.4965C7.66026 31.714 32.3625 6.75731 62.8327 6.75731C93.3078 6.75731 118.01 31.714 118.01 62.4965C118.01 93.2806 93.3078 118.234 62.8327 118.234Z" fill="#E1E1E1"/>
<path d="M21.7644 75.0956V48.9206C21.7644 48.725 21.9213 48.5666 22.1148 48.5666L17.1354 48.5663C16.9418 48.5663 16.7849 48.7248 16.7849 48.9203V75.0956C16.7849 75.2911 16.9418 75.4496 17.1354 75.4496L22.1148 75.4498C21.9213 75.4496 21.7644 75.2912 21.7644 75.0956Z" fill="#E1E1E1"/>
<path d="M5.94904 62.497C5.94904 28.8244 32.3134 1.37549 65.3226 0.0546874C64.4963 0.0217285 63.6672 0 62.8327 0C28.6689 0 0.969543 27.9814 0.969543 62.497C0.969543 97.0172 28.6689 125 62.8327 125C63.667 125 64.4963 124.978 65.3226 124.945C32.3134 123.625 5.94904 96.1739 5.94904 62.497Z" fill="#E1E1E1"/>
<path d="M57.6646 76.2706C46.9521 67.7594 49.4645 69.765 45.2114 66.3422C44.8651 66.0634 44.6948 65.6137 44.7798 65.1747C45.122 63.4125 45.2815 61.2035 44.8298 58.7936C44.747 58.3507 44.9108 57.8971 45.2607 57.6176C50.1984 53.671 47.6423 55.7057 57.6639 47.7492L55.392 45.944C55.2649 45.8429 55.0861 45.8429 54.959 45.944L41.5618 56.5805C41.3832 56.7221 41.1189 56.6588 41.0277 56.4511C41.0285 56.4528 43.2523 61.8895 41.0306 67.5602C41.1256 67.35 41.3905 67.2968 41.5635 67.434C42.2279 67.9618 42.0389 67.8124 42.7436 68.3722C44.4799 69.7518 53.8686 77.2106 54.9587 78.0768C55.0858 78.1778 55.2649 78.1778 55.392 78.0768L57.6646 76.2706Z" fill="#E1E1E1"/>
<path d="M55.075 61.9086L65.2954 53.8105L63.0223 52.0048C62.9426 51.9413 62.843 51.9223 62.748 51.9384L50.2238 61.828C50.2298 61.8329 50.2359 61.8378 50.2419 61.8427C51.6566 62.9858 53.6494 63.0378 55.075 61.9086Z" fill="#E1E1E1"/>
<path d="M75.4224 75.1019C75.4224 71.5865 75.4224 51.6339 75.4224 48.9203C75.4224 48.7248 75.5792 48.5663 75.7728 48.5663H70.7933C70.5997 48.5663 70.4429 48.7248 70.4429 48.9203C70.4429 63.4288 70.4429 43.6098 70.4429 57.9398L57.8573 67.8859C59.1724 69.1219 61.1828 69.2057 62.5944 68.0834L69.8105 62.3466C70.0671 62.143 70.4431 62.3278 70.4431 62.6573C70.4431 62.9471 70.4431 75.3509 70.4431 75.1019C70.4431 75.2975 70.6 75.4559 70.7935 75.4559H75.773C75.5792 75.4559 75.4224 75.2975 75.4224 75.1019Z" fill="#E1E1E1"/>
</svg>
