<svg width="100" height="100" viewBox="0 0 100 100" fill="none" xmlns="http://www.w3.org/2000/svg">
<rect width="100" height="100" rx="10" fill="#006BB3"/>
<path d="M27.4836 62.287C27.6934 62.287 27.9036 62.2071 28.0638 62.0469L29.9129 60.1973C30.2334 59.8773 30.2334 59.3578 29.9129 59.0373C29.5925 58.7169 29.073 58.7169 28.753 59.0373L26.9038 60.8865C26.5834 61.2069 26.5834 61.7264 26.9038 62.0469C27.0636 62.2071 27.2738 62.287 27.4836 62.287Z" fill="#EBEBEB"/>
<path d="M33.5373 67.364C33.2173 67.0435 32.6977 67.0435 32.3773 67.364L30.5282 69.2131C30.2077 69.5335 30.2077 70.053 30.5282 70.3731C30.6884 70.5333 30.8982 70.6136 31.1084 70.6136C31.3182 70.6136 31.5279 70.5333 31.6881 70.3731L33.5373 68.5239C33.8577 68.2035 33.8577 67.6844 33.5373 67.364Z" fill="#EBEBEB"/>
<path d="M53.6063 61.6273C53.3747 60.8647 52.6839 60.3524 51.887 60.3524H47.8205L51.7572 56.4158H57.5647L54.9427 59.0374C54.6223 59.3578 54.6223 59.8773 54.9427 60.1973C55.1029 60.3576 55.3127 60.4379 55.5229 60.4379C55.7327 60.4379 55.9429 60.3576 56.1031 60.1973L59.6651 56.6354C59.7309 56.5696 59.7826 56.4948 59.8214 56.4158H63.2454C63.6987 56.4158 64.0657 56.0484 64.0657 55.5955C64.0657 55.1422 63.6987 54.7752 63.2454 54.7752H58.2009C59.5121 53.7395 60.482 52.2724 60.8934 50.5454C60.9985 50.1045 60.7263 49.6623 60.2854 49.5572C59.8441 49.4521 59.4027 49.7243 59.2976 50.1652C58.6508 52.8795 56.2484 54.7752 53.455 54.7752H34.1717C31.6655 54.7752 29.6262 52.7359 29.6262 50.2293C29.6262 47.7675 31.5531 45.7727 34.0128 45.6881C34.4353 45.6735 34.7775 45.3399 34.8032 44.9177C34.9437 42.5965 35.9469 40.4252 37.6281 38.8038C37.9541 38.4894 37.9635 37.9703 37.6491 37.6443C37.3346 37.3179 36.8151 37.3089 36.4891 37.6234C34.6823 39.3661 33.5411 41.6497 33.2309 44.1154C30.2372 44.5657 27.9856 47.1249 27.9856 50.2297C27.9856 53.6408 30.761 56.4158 34.1717 56.4158H34.9856L25.1308 66.2707C24.8107 66.5911 24.8107 67.1102 25.1308 67.4306C25.291 67.5908 25.5012 67.6707 25.711 67.6707C25.9207 67.6707 26.1309 67.5908 26.2912 67.4306L37.306 56.4158H41.2025L35.3146 62.3037C34.7989 62.8194 34.646 63.588 34.9249 64.2617C35.2044 64.9359 35.8559 65.3713 36.5852 65.3713H40.3343L33.1156 72.5901C32.4482 73.2578 32.3986 74.2717 32.9976 75.001C33.357 75.4385 33.8611 75.6667 34.3768 75.6667C34.7216 75.6667 35.0715 75.5645 35.3859 75.3543L52.8864 63.6431C53.5486 63.2 53.8379 62.39 53.6063 61.6273ZM51.9738 62.2797L34.4733 73.9906C34.4263 74.0222 34.3554 74.0696 34.2657 73.9598C34.1756 73.8504 34.2358 73.7902 34.276 73.75L42.8948 65.1312C43.1298 64.8966 43.1999 64.5437 43.073 64.2374C42.9456 63.9306 42.6466 63.7307 42.315 63.7307H36.5852C36.5596 63.7307 36.481 63.7307 36.4408 63.6341C36.4011 63.5376 36.4566 63.482 36.475 63.4636L43.5228 56.4158H49.4372L45.26 60.593C45.0255 60.8275 44.9554 61.1804 45.0823 61.4868C45.2092 61.7935 45.5083 61.9931 45.8402 61.9931H51.887C51.9217 61.9931 52.0028 61.9931 52.0366 62.1041C52.0703 62.2152 52.0028 62.2605 51.9738 62.2797Z" fill="#EBEBEB"/>
<path d="M65.0432 58.103C64.7228 57.7826 64.2033 57.7826 63.8833 58.103L57.4797 64.5066C57.1593 64.827 57.1593 65.3461 57.4797 65.6666C57.6399 65.8268 57.8501 65.9067 58.0599 65.9067C58.2697 65.9067 58.4799 65.8268 58.6401 65.6666L65.0432 59.263C65.3637 58.943 65.3637 58.4234 65.0432 58.103Z" fill="#EBEBEB"/>
<path d="M54.7227 67.2636L52.6723 69.3139C52.3519 69.6344 52.3519 70.1535 52.6723 70.4739C52.8326 70.6341 53.0423 70.714 53.2525 70.714C53.4623 70.714 53.6721 70.6341 53.8323 70.4739L55.8827 68.4235C56.2031 68.1031 56.2031 67.5836 55.8827 67.2636C55.5627 66.9431 55.0431 66.9431 54.7227 67.2636Z" fill="#EBEBEB"/>
<path d="M80.8907 48.0896C80.8907 45.9166 80.0584 43.8603 78.5468 42.2996C77.2099 40.92 75.4698 40.0574 73.5856 39.8275C72.7691 32.2982 66.3716 26.5 58.7166 26.5C55.8365 26.5 53.0398 27.3207 50.6288 28.8734C48.4024 30.3072 46.6024 32.2969 45.3997 34.6442C44.9627 34.5899 44.5196 34.5609 44.0723 34.5609C42.5846 34.5609 41.1384 34.8574 39.7733 35.4418C39.3572 35.6204 39.1641 36.1024 39.3427 36.5189C39.5213 36.9355 40.0036 37.1286 40.4198 36.95C41.5789 36.4531 42.8081 36.2015 44.0723 36.2015C47.9239 36.2015 51.4196 38.624 52.771 42.2295C52.8898 42.5465 53.191 42.758 53.5294 42.7619C56.1608 42.7939 58.4414 44.5054 59.2045 47.0211C59.3122 47.3753 59.6373 47.6034 59.9894 47.6034C60.0684 47.6034 60.1483 47.5919 60.2278 47.5679C60.6614 47.4364 60.9062 46.9783 60.7746 46.5447C59.8565 43.5194 57.2157 41.4071 54.1032 41.1477C52.7924 38.1254 50.1747 35.8828 47.0763 34.9881C48.1418 33.0732 49.6632 31.4467 51.5175 30.2529C53.6627 28.8712 56.1523 28.1406 58.7166 28.1406C65.7456 28.1406 71.584 33.6312 72.0082 40.6401C72.0339 41.0627 72.3761 41.3959 72.7991 41.4105C76.4165 41.5348 79.25 44.4687 79.25 48.0896C79.25 51.7759 76.2512 54.7752 72.5649 54.7752H66.8176C66.3647 54.7752 65.9973 55.1422 65.9973 55.5955C65.9973 56.0484 66.3647 56.4158 66.8176 56.4158H72.0911L62.2362 66.2707C61.9158 66.5907 61.9158 67.1102 62.2362 67.4306C62.3965 67.5908 62.6067 67.6707 62.8164 67.6707C63.0262 67.6707 63.2364 67.5908 63.3966 67.4306L74.6862 56.1406C78.2528 55.2003 80.8907 51.9476 80.8907 48.0896Z" fill="#EBEBEB"/>
<path d="M69.0846 39.7758C69.1482 39.7758 69.2128 39.7685 69.2768 39.7531C69.7173 39.6472 69.9886 39.2046 69.8831 38.7636C69.7306 38.1292 69.5217 37.5037 69.2623 36.9043C69.0824 36.4886 68.5992 36.2976 68.184 36.4775C67.7678 36.6573 67.5768 37.1405 67.7567 37.5563C67.9784 38.0689 68.1575 38.6043 68.2878 39.1473C68.3783 39.5233 68.7142 39.7758 69.0846 39.7758Z" fill="#EBEBEB"/>
<path d="M65.8217 34.6484C65.9828 34.8163 66.1981 34.9005 66.4139 34.9005C66.6181 34.9005 66.8227 34.8249 66.9817 34.6724C67.3085 34.3583 67.3192 33.8392 67.0056 33.5124C64.8147 31.23 61.871 29.9731 58.7166 29.9731C58.2633 29.9731 57.8963 30.3401 57.8963 30.7934C57.8963 31.2463 58.2633 31.6137 58.7166 31.6137C61.4202 31.6137 63.9435 32.6912 65.8217 34.6484Z" fill="#EBEBEB"/>
<path d="M60.2927 69.0734H60.2816C60.2803 69.0734 60.279 69.0734 60.2777 69.0734C59.8266 69.0734 59.4596 69.4382 59.4574 69.8898C59.4553 70.3432 59.8206 70.7123 60.2739 70.714H60.2893C60.7404 70.714 61.107 70.3496 61.1092 69.8975C61.1113 69.4447 60.746 69.0755 60.2927 69.0734Z" fill="#EBEBEB"/>
<path d="M70.0587 63.5132H70.0476C70.0463 63.5132 70.045 63.5132 70.0433 63.5132C69.5921 63.5132 69.2256 63.8776 69.2234 64.3297C69.2213 64.7825 69.5866 65.1517 70.0399 65.1538H70.0553C70.5065 65.1538 70.873 64.789 70.8752 64.3374C70.8773 63.8845 70.512 63.5153 70.0587 63.5132Z" fill="#EBEBEB"/>
<path d="M29.12 70.9917H29.1084C28.6556 70.9917 28.2881 71.3592 28.2881 71.8121C28.2881 72.2649 28.6556 72.6324 29.1084 72.6324H29.12C29.5728 72.6324 29.9403 72.2649 29.9403 71.8121C29.9403 71.3592 29.5728 70.9917 29.12 70.9917Z" fill="#EBEBEB"/>
</svg>
