<svg width="125" height="113" viewBox="0 0 125 113" fill="none" xmlns="http://www.w3.org/2000/svg">
<path d="M112.101 14.1073C110.698 12.47 108.26 10.5182 104.613 10.5182H20.2896C16.6425 10.5182 14.2048 12.47 12.8027 14.1066C10.5755 16.7036 9.42692 20.2471 9.56845 24.0844L12.0105 90.5232C12.2519 97.1176 17.2057 102.483 23.0529 102.483H101.85C107.697 102.483 112.651 97.1171 112.892 90.5222L112.975 88.2664C113.013 87.2385 112.226 86.3737 111.218 86.3355C110.205 86.2927 109.362 87.0991 109.324 88.1271L109.241 90.3831C109.072 95.0007 105.756 98.7575 101.85 98.7575H95.3762L102.307 14.2442H104.613C106.44 14.2442 108.033 15.023 109.35 16.5596C110.961 18.4383 111.79 21.0612 111.683 23.9455L109.616 80.2099C109.578 81.2378 110.364 82.1023 111.373 82.1408C112.385 82.184 113.229 81.3771 113.267 80.3492L115.335 24.0846C115.476 20.2473 114.328 16.7036 112.101 14.1073ZM88.8581 14.2437C84.6239 38.0904 81.3875 49.5352 76.263 59.0138C75.2949 60.8059 73.7237 62.0174 71.964 62.3355C69.0408 62.8444 66.1571 62.9464 62.4516 62.9464C58.7462 62.9464 55.8623 62.8441 52.9509 62.3375C51.1797 62.0171 49.6085 60.8056 48.6399 59.0133C43.5157 49.535 40.2793 38.0904 36.0451 14.2437H88.8581ZM23.0529 98.757C19.1464 98.757 15.8306 95.0009 15.6615 90.3838L13.2192 23.9448C13.113 21.0607 13.9417 18.4378 15.5536 16.5583C16.8695 15.0225 18.4629 14.2437 20.2896 14.2437H22.5954L29.5267 98.757H23.0529ZM91.7108 98.7463H81.9667C81.8805 97.8269 81.7322 96.6135 81.4781 95.2282C81.2927 94.2171 80.3395 93.5498 79.3466 93.7396C78.3549 93.9286 77.7014 94.9016 77.8868 95.9126C78.0872 97.0054 78.2137 97.9787 78.2945 98.757H46.611C46.8999 96.0075 47.772 90.7752 50.3768 86.5816C50.8881 85.7439 51.5156 85.1131 52.242 84.7065C52.2493 84.7025 52.2564 84.6986 52.2634 84.6944C54.7902 83.2348 59.183 82.7147 62.4516 82.7147C65.7199 82.7147 70.1127 83.2348 72.6397 84.6944C72.6468 84.6986 72.6538 84.7025 72.6609 84.7065C73.3873 85.1131 74.0151 85.7441 74.5342 86.5942C75.017 87.3716 75.4666 88.2294 75.8703 89.1441C76.2844 90.0821 77.366 90.5001 78.286 90.0781C79.2061 89.6559 79.616 88.5532 79.2022 87.6152C78.7279 86.5406 78.1959 85.5266 77.6286 84.6136C76.7842 83.2306 75.7083 82.1654 74.4304 81.4474C70.4722 79.1673 64.262 78.9897 62.4516 78.9897C60.6412 78.9897 54.4312 79.167 50.473 81.4471C49.1949 82.1651 48.1189 83.2303 47.2824 84.601C44.149 89.6457 43.2122 95.7512 42.9337 98.7463H33.1921L26.2618 14.2437H32.3322C36.7043 38.9912 40.0542 50.8487 45.4401 60.8111C46.9438 63.5941 49.4487 65.4876 52.3243 66.0076C55.5018 66.5607 58.555 66.6717 62.4516 66.6717C66.3481 66.6717 69.4014 66.5607 72.5905 66.0054C75.4545 65.4873 77.9594 63.5941 79.4628 60.8114C84.849 50.8485 88.1989 38.9909 92.5709 14.2434H98.6416L91.7108 98.7463Z" fill="#E1E1E1"/>
<path d="M120.585 7.32886C115.862 2.32879 106.642 0 91.5688 0H33.8055C18.4497 0 9.07808 2.34966 4.31214 7.39467C-0.271845 12.2472 -0.0216726 19.0508 0.179294 24.517L0.189038 24.7813C0.226308 25.8095 1.07816 26.6144 2.08226 26.5734C3.0905 26.5351 3.87732 25.6709 3.84005 24.6429L3.8303 24.3779C3.60035 18.1202 3.68877 13.4244 6.9437 9.97902C10.9189 5.77095 19.7057 3.72527 33.8055 3.72527H91.5688C105.39 3.72527 114.02 5.74934 117.954 9.91321C121.216 13.366 121.304 18.0865 121.073 24.3782L118.631 90.8155C118.257 100.994 110.729 109.275 101.85 109.275H23.0527C14.1739 109.275 6.64602 100.994 6.2721 90.8155L4.12725 32.4593C4.08949 31.4311 3.24032 30.6252 2.23329 30.6677C1.22505 30.7062 0.438479 31.5707 0.476237 32.5986L2.6211 90.9548C2.83716 96.8378 5.05778 102.36 8.87346 106.505C12.7298 110.693 17.7654 113 23.0527 113H101.85C107.137 113 112.173 110.693 116.029 106.505C119.845 102.36 122.066 96.8378 122.282 90.9548L124.724 24.5175C124.926 19.025 125.177 12.1893 120.585 7.32886Z" fill="#E1E1E1"/>
</svg>
