<svg width="148" height="81" viewBox="0 0 148 81" fill="none" xmlns="http://www.w3.org/2000/svg">
<path d="M103.714 75.3479C103.451 74.1833 102.294 73.4537 101.13 73.7166C92.461 75.6805 83.2468 76.6762 73.7437 76.6762C54.9724 76.6762 37.3584 72.7792 24.1461 65.7031C11.3617 58.8559 4.32092 49.9052 4.32092 40.5C4.32092 34.6268 7.01083 28.9966 12.3163 23.7659C13.1664 22.9279 13.1765 21.559 12.3391 20.7083C11.5017 19.8577 10.1337 19.8476 9.28392 20.6856C3.21044 26.6738 0 33.5254 0 40.5C0 51.5757 7.85111 61.88 22.1073 69.5153C35.9356 76.9212 54.2736 81 73.7437 81C83.5674 81 93.1025 79.9683 102.084 77.9338C103.248 77.6701 103.978 76.5124 103.714 75.3479Z" fill="#E1E1E1"/>
<path d="M125.38 11.4847C111.552 4.07882 93.2137 0 73.7437 0C51.9092 0 31.3555 5.20677 17.3528 14.2854C16.3515 14.9346 16.0657 16.2735 16.7145 17.2755C17.3635 18.2777 18.7009 18.5637 19.7025 17.9143C33.0236 9.27724 52.7209 4.32384 73.7437 4.32384C92.5149 4.32384 110.129 8.22078 123.341 15.2969C136.126 22.1441 143.166 31.0948 143.166 40.5C143.166 53.0596 130.191 64.9447 109.303 71.5166C108.165 71.8749 107.533 73.0885 107.89 74.2274C108.18 75.1507 109.032 75.7416 109.951 75.7416C110.166 75.7416 110.384 75.7093 110.599 75.6416C121.471 72.2208 130.613 67.3044 137.035 61.4239C143.873 55.163 147.487 47.9275 147.487 40.5C147.487 29.4243 139.636 19.12 125.38 11.4847Z" fill="#E1E1E1"/>
<path d="M121.299 19.0993C120.225 18.5245 119.1 17.9612 117.955 17.4259C116.328 16.6647 114.62 15.9406 112.876 15.2738C101.521 10.9327 87.9886 8.63787 73.7437 8.63787C71.5815 8.63787 69.3913 8.69293 67.2355 8.80189C65.0295 8.91171 62.8587 9.0766 60.7864 9.29135C47.6292 10.634 35.6654 14.0257 26.1879 19.0993C15.0371 25.0716 8.64183 32.8721 8.64183 40.5006C8.64183 48.1275 15.0371 55.9269 26.1905 61.9004C26.9314 62.2959 27.6982 62.6882 28.4723 63.0676C30.1364 63.8801 31.8964 64.6547 33.7023 65.3693C45.2351 69.943 59.0813 72.3606 73.7437 72.3606C75.2865 72.3606 76.8147 72.333 78.2775 72.2788C78.8619 72.2595 79.4484 72.235 80.0349 72.207C81.6357 72.1306 83.2393 72.0237 84.8216 71.8862C98.7425 70.6801 111.356 67.2268 121.299 61.8992C132.45 55.9269 138.845 48.1275 138.845 40.5006C138.845 32.8721 132.45 25.0716 121.299 19.0993ZM68.8587 13.0586C70.4848 12.9951 72.1222 12.962 73.7437 12.962C86.1095 12.962 97.8809 14.7506 108.041 18.1434C101.241 24.2299 89.816 32.1705 76.5033 32.1705C72.3123 32.1705 69.4423 31.0763 67.9735 28.9178C65.9012 25.873 66.2227 20.2713 68.8587 13.0586ZM28.2268 58.0871C18.5264 52.8912 12.9628 46.4816 12.9628 40.5006C12.9628 34.5181 18.5264 28.1073 28.2265 22.9117C36.0048 18.7476 45.6024 15.7765 56.2171 14.2179C49.3803 23.4805 38.8171 38.8774 28.5057 58.2326C28.4135 58.1839 28.3181 58.1358 28.2268 58.0871ZM76.6407 68.0011C75.6886 68.0238 74.7205 68.0362 73.7439 68.0362C60.8512 68.0365 48.6541 66.1038 38.2326 62.4394C44.5746 55.6403 57.0347 44.4249 70.2034 44.4249C73.6659 44.4249 76.0441 45.4055 77.4743 47.423C80.0637 51.0758 79.7492 58.5295 76.6407 68.0011ZM119.26 58.0871C110.922 62.5547 100.545 65.6348 89.0313 67.0882C93.4393 60.5496 99.9333 50.8201 106.13 41.1765C106.776 40.1722 106.485 38.8344 105.482 38.1887C104.478 37.5425 103.141 37.8333 102.496 38.8376C95.2869 50.056 87.6694 61.3985 83.4291 67.6598C83.36 67.6652 83.2911 67.671 83.222 67.6765C82.5707 67.7263 81.9174 67.7722 81.2626 67.8114C81.254 67.812 81.2456 67.8122 81.237 67.8128C85.1955 54.8892 83.36 48.2529 80.9985 44.9215C78.7309 41.723 75.099 40.1013 70.2034 40.1013C63.0105 40.1013 55.4094 42.8885 47.611 48.3855C41.8887 52.4191 37.1319 57.1646 33.8936 60.7776C33.7971 60.737 33.7023 60.6952 33.6061 60.6543C33.2541 60.5047 32.9038 60.3536 32.5578 60.2C32.5025 60.1755 32.4484 60.1504 32.3933 60.1256C43.8942 38.5615 55.7007 21.9873 62.1512 13.5039C62.2293 13.4964 62.3065 13.4886 62.3848 13.4814C62.9143 13.4324 63.4489 13.3863 63.9887 13.3439C64.0579 13.3385 64.1256 13.3321 64.195 13.3269C62.2241 19.3665 61.1214 26.5302 64.4024 31.3519C66.725 34.7645 70.7962 36.4947 76.5039 36.4947C92.3942 36.4947 105.598 26.4674 112.608 19.8138C112.692 19.8479 112.774 19.8833 112.858 19.9173C113.198 20.056 113.536 20.1955 113.871 20.3379C113.901 20.3503 113.929 20.3633 113.959 20.3757C112.233 23.3029 110.2 26.6398 107.894 30.3289C107.262 31.3412 107.569 32.675 108.581 33.3083C109.592 33.9413 110.925 33.634 111.558 32.6217C113.981 28.744 116.104 25.2535 117.897 22.2038C118.359 22.437 118.816 22.6731 119.261 22.9114C128.961 28.1073 134.525 34.5181 134.525 40.5006C134.525 46.4813 128.961 52.8912 119.26 58.0871Z" fill="#E1E1E1"/>
</svg>
