<svg width="183" height="77" viewBox="0 0 183 77" fill="none" xmlns="http://www.w3.org/2000/svg">
<path d="M72.4211 24.1314C67.0404 24.1314 63.3441 27.6541 62.5341 33.5548C62.4285 34.3241 62.659 35.1016 63.1655 35.6872C63.6724 36.2724 64.4059 36.6087 65.1771 36.6087H78.8369C80.3107 36.6087 81.5049 35.4064 81.5049 33.9226C81.5049 28.4323 77.5147 24.1314 72.4211 24.1314ZM68.8351 31.2366C69.8243 29.7334 71.2678 29.5035 72.4215 29.5035C73.6871 29.5035 74.7682 30.1697 75.4391 31.2366H68.8351Z" fill="#E1E1E1"/>
<path d="M116.24 24.1314C110.86 24.1314 107.163 27.6541 106.353 33.5548C106.248 34.3241 106.478 35.1016 106.985 35.6872C107.492 36.2724 108.225 36.6087 108.996 36.6087H122.656C124.13 36.6087 125.324 35.4064 125.324 33.9226C125.324 28.4323 121.334 24.1314 116.24 24.1314ZM112.654 31.2366C113.643 29.7334 115.087 29.5035 116.24 29.5035C117.506 29.5035 118.587 30.1697 119.258 31.2366H112.654Z" fill="#E1E1E1"/>
<path d="M163.46 13.7124C159.375 13.7124 156.367 14.7947 154.212 16.1302C153.75 15.3284 152.889 14.789 151.902 14.789H137.561C136.087 14.789 134.893 15.9913 134.893 17.4751V23.5932C134.441 22.8493 133.956 22.1438 133.433 21.4844C129.338 16.3276 123.136 13.7128 114.999 13.7128C110.187 13.7128 105.666 15.3538 101.927 18.4585C100.79 19.4026 100.629 21.0951 101.566 22.2397C102.504 23.3847 104.185 23.5466 105.322 22.6033C108.133 20.2685 111.389 19.0853 114.999 19.0853C127.12 19.0853 133.14 25.6965 133.795 39.8337H108.79C108.043 39.8337 107.331 40.1485 106.826 40.7018C106.321 41.2552 106.069 41.9962 106.132 42.745C106.646 48.8982 109.971 55.1069 116.241 55.1069C119.027 55.1069 121.731 53.9584 123.514 52.0928H131.648C128.676 57.3453 123.237 60.2846 116.241 60.2846C105.037 60.2846 97.7977 52.4653 97.7977 40.3645C97.7977 36.8758 98.4821 33.4022 99.777 30.3194C100.351 28.9531 99.7161 27.3769 98.3594 26.7992C97.0023 26.2212 95.4368 26.8605 94.863 28.2264C94.5361 29.0043 94.2494 29.8062 93.9876 30.6195C93.026 27.0012 91.5679 23.9452 89.6147 21.4851C85.5196 16.3283 79.3175 13.7135 71.1803 13.7135C64.7197 13.7135 58.8485 16.6696 54.6484 22.037C52.4839 24.8033 50.8643 28.0574 49.8554 31.5886L49.8778 18.8081C49.8807 17.3243 48.6879 16.1199 47.2149 16.117C47.2131 16.117 47.2113 16.117 47.2099 16.117C45.7386 16.117 44.5448 17.3164 44.542 18.798L44.4989 43.1848C44.4449 44.3094 43.3307 60.4998 24.7644 60.4998C7.11877 60.4998 5.68876 47.9527 5.60054 46.8973V36.5585H17.221V44.5475C17.221 44.6048 17.2227 44.6622 17.2267 44.7195C17.4102 47.5967 19.4553 51.8776 24.3362 51.8776C29.1989 51.8776 31.2799 47.6132 31.4919 44.747C31.4969 44.6804 31.4994 44.6142 31.4994 44.5472V5.37209H44.5658L44.5626 7.09868C44.5601 8.5821 45.7525 9.78688 47.2259 9.78939C47.2273 9.78939 47.2291 9.78939 47.2305 9.78939C48.7018 9.78939 49.896 8.58962 49.8985 7.108L49.9059 2.6907C49.9074 1.97765 49.6267 1.29324 49.1262 0.788267C48.626 0.283648 47.9466 0 47.238 0H28.8307C27.357 0 26.1628 1.20227 26.1628 2.68605V44.4075C26.0799 45.1045 25.7377 46.5044 24.3354 46.5044C22.9353 46.5044 22.6233 45.0819 22.5561 44.4315V33.8714C22.5561 32.3876 21.362 31.1854 19.8882 31.1854H2.93191C1.45814 31.1854 0.263977 32.3876 0.263977 33.8714V46.9915C0.263977 47.0409 0.2654 47.0903 0.268246 47.1398C0.278917 47.3367 0.570255 52.0119 3.81552 56.638C6.77052 60.8504 12.8036 65.8712 24.7641 65.8712C37.2646 65.8712 43.4431 59.7237 46.4252 54.5665C48.0081 51.8285 48.8573 49.0948 49.3122 47.0083C51.7127 58.3925 60.3994 65.6556 72.4218 65.6556C82.9463 65.6556 91.0468 60.1187 94.2216 50.8114C97.601 59.9841 105.618 65.6556 116.241 65.6556C124.211 65.6556 130.79 62.4796 134.894 56.8969V58.3166C134.894 59.8004 136.088 61.0026 137.562 61.0026C139.036 61.0026 140.23 59.8004 140.23 58.3166V20.1611H149.235V22.2118C149.235 23.4864 150.107 24.6228 151.347 24.8803C152.583 25.1392 153.807 24.5268 154.312 23.3668C154.498 23.0119 156.717 19.0845 163.461 19.0845C168.539 19.0845 177.06 21.7008 177.06 39.2206C177.06 58.3037 163.754 58.9097 163.204 58.9258C163.167 58.9265 163.13 58.9279 163.092 58.9301C163.035 58.9344 157.145 59.2212 154.69 54.5436C154.118 53.4527 152.88 52.894 151.689 53.1916C150.499 53.4885 149.663 54.564 149.663 55.7985V71.6283H140.23V69.9568C140.23 68.4731 139.036 67.2708 137.562 67.2708C136.089 67.2708 134.894 68.4731 134.894 69.9568V74.314C134.894 75.7977 136.089 77 137.562 77H152.331C153.805 77 154.999 75.7977 154.999 74.314V62.2633C158.788 64.4239 162.817 64.3212 163.353 64.2954C163.968 64.2746 168.501 64.0185 172.992 60.9321C177.282 57.9835 182.396 51.8231 182.396 39.2206C182.395 15.5519 167.902 13.7124 163.46 13.7124ZM72.4215 60.2835C61.2176 60.2835 53.9783 52.4642 53.9783 40.3634C53.9783 29.9036 60.4122 19.0845 71.1793 19.0845C83.3006 19.0845 89.3205 25.6958 89.9761 39.833H64.9705C64.2238 39.833 63.5117 40.1478 63.0065 40.7011C62.5014 41.2545 62.2495 41.9954 62.3121 42.7443C62.8262 48.8975 66.1515 55.1062 72.4215 55.1062C75.2079 55.1062 77.9117 53.9577 79.6946 52.0921H87.8293C84.8565 57.3442 79.4186 60.2835 72.4215 60.2835ZM91.8764 46.7197H78.4236C77.5176 46.7197 76.6731 47.1827 76.1818 47.9495C75.5081 49.0003 73.9621 49.7338 72.4215 49.7338C70.3383 49.7338 68.909 47.6952 68.1695 45.2047H92.7045C92.7415 45.2047 92.777 45.2008 92.8137 45.199C92.9058 45.8232 93.0097 46.4399 93.1374 47.0416C92.7543 46.8346 92.3228 46.7197 91.8764 46.7197ZM134.893 46.7193H122.242C121.336 46.7193 120.491 47.1827 120 47.9499C119.327 49.0003 117.781 49.7338 116.24 49.7338C114.157 49.7338 112.728 47.6952 111.988 45.2047H134.893V46.7193Z" fill="#E1E1E1"/>
<path d="M158.43 26.6528C152.615 26.6528 149.003 31.4525 149.003 39.179C149.003 50.4848 155.596 51.7053 158.43 51.7053C161.265 51.7053 167.857 50.4848 167.857 39.179C167.857 31.4529 164.245 26.6528 158.43 26.6528ZM158.43 46.3336C157.418 46.3336 154.339 46.3336 154.339 39.1794C154.339 36.5077 154.871 32.0252 158.43 32.0252C161.989 32.0252 162.521 36.5077 162.521 39.1794C162.521 46.3336 159.442 46.3336 158.43 46.3336Z" fill="#E1E1E1"/>
</svg>
