<svg width="60" height="88" viewBox="0 0 60 88" fill="none" xmlns="http://www.w3.org/2000/svg">
<path d="M48.2022 47.0529C48.2022 47.0529 40.8905 51.5357 37.9146 51.4464C37.9146 51.4464 40.8015 53.936 40.8015 54.3003C40.8015 54.2967 48.3375 48.003 48.2022 47.0529Z" fill="#F4F4F4"/>
<path d="M46.6851 77.6357C47.5822 68.8666 46.1654 61.1048 40.7902 54.2967C42.8798 52.3858 45.0263 50.6105 46.9378 48.6067C48.141 47.3422 49.1057 45.8027 49.9601 44.2632C50.8713 42.6237 50.4691 41.0878 49.1235 39.734C45.6813 36.2728 41.972 33.2296 36.992 32.4187C35.326 32.1473 33.5675 32.2116 31.8802 32.3902C30.823 32.5009 30.2855 32.3294 29.7942 31.3579C28.3632 28.5468 26.1277 26.6001 23.1731 25.4499C21.9842 24.9856 21.347 25.2999 20.7774 26.4179C19.5244 28.8861 19.6098 31.3472 20.5852 33.8368C20.9946 34.8834 21.4894 35.8978 21.9237 36.8729C9.99148 46.2492 7.06894 58.8938 8.50351 73.4315C5.11465 69.2702 2.77592 64.7946 1.4695 59.8082C-1.84461 47.1529 0.608043 35.3441 7.20421 24.3569C14.5728 12.0767 25.3624 4.17557 39.1278 0.367908C39.6262 0.228603 40.1423 0.153593 40.8899 0C40.7368 1.10372 40.6158 2.02171 40.477 2.93612C39.2204 11.0944 41.5235 18.3632 46.0337 25.0463C48.9918 29.429 52.2276 33.6296 55.0327 38.1052C61.0201 47.6708 61.7356 57.6329 56.4103 67.7379C54.246 71.8456 50.971 75.0032 46.6851 77.6357Z" fill="#F4F4F4"/>
<path d="M36.2807 79.7824C34.6432 83.9973 31.5747 86.469 27.57 87.9371C27.3173 88.03 26.9685 88.0157 26.7122 87.9228C22.7787 86.4512 19.7244 84.033 18.0763 79.786C19.2688 79.6181 20.3438 79.6181 21.3014 79.2859C22.0062 79.043 22.5651 78.3679 23.188 77.8857C22.679 77.2999 22.2661 76.5712 21.6431 76.1569C20.2726 75.2389 18.7028 74.6031 17.3928 73.6173C15.4456 72.1528 15.0612 70.1311 16.122 67.8986C17.4213 65.1625 19.7493 63.7516 22.5829 63.0694C23.2735 62.9051 23.9818 62.7551 24.6867 62.7408C25.8222 62.7193 26.3384 62.28 26.5164 61.0834C26.8047 59.1403 27.8335 57.5579 29.5635 56.2863C30.012 56.6756 30.4356 57.0435 30.8592 57.4115C29.9301 58.5295 28.9583 59.4867 28.2428 60.6083C27.271 62.1335 27.5487 62.3193 29.2645 62.7336C31.4181 63.2516 33.6038 63.8659 35.5616 64.8625C36.6687 65.4268 37.5444 66.7306 38.1816 67.8915C39.3563 70.0418 38.9113 72.1278 36.9748 73.5958C35.6186 74.621 33.9953 75.2782 32.5643 76.2176C31.9841 76.5998 31.6068 77.2928 31.1369 77.8464C31.6922 78.3179 32.1763 79.0002 32.8171 79.2145C33.8565 79.5502 34.9992 79.5859 36.2807 79.7824Z" fill="#F4F4F4"/>
<path d="M33.764 42.4773C32.3899 42.3058 31.5356 41.5593 31.5391 40.1698C31.5427 38.7875 32.3223 37.9624 33.7604 37.9588C35.2128 37.9552 35.9461 38.7768 35.9496 40.177C35.9532 41.595 35.1238 42.3165 33.764 42.4773Z" fill="#F4F4F4"/>
</svg>
