<svg width="39" height="29" viewBox="0 0 39 29" fill="none" xmlns="http://www.w3.org/2000/svg">
<path d="M0.814124 2.35293C6.16672 6.84725 15.5589 14.7541 18.3193 17.2195C18.6899 17.5523 19.0874 17.7214 19.5 17.7214C19.9118 17.7214 20.3086 17.5539 20.6783 17.2227C23.4411 14.7549 32.8333 6.84725 38.1859 2.35293C38.5192 2.07365 38.57 1.58277 38.3002 1.24134C37.6765 0.45237 36.7466 0 35.75 0H3.25002C2.25347 0 1.32348 0.45237 0.699866 1.24141C0.430065 1.58277 0.480872 2.07365 0.814124 2.35293Z" fill="#E1E1E1"/>
<path d="M38.5287 4.78845C38.2407 4.65554 37.9019 4.70191 37.6623 4.90491C31.7263 9.89397 24.1504 16.2889 21.7669 18.4184C20.4291 19.6157 18.5724 19.6157 17.2315 18.4168C14.6908 16.1473 6.18333 8.97669 1.33773 4.90483C1.09649 4.70183 0.75692 4.65705 0.471275 4.78838C0.184107 4.92062 0 5.2054 0 5.51927V25.7778C0 27.5549 1.45755 29 3.25003 29H35.7501C37.5425 29 39 27.5549 39 25.7778V5.51927C39 5.2054 38.8159 4.91986 38.5287 4.78845Z" fill="#E1E1E1"/>
</svg>
