<svg width="100" height="100" viewBox="0 0 100 100" fill="none" xmlns="http://www.w3.org/2000/svg">
<rect width="100" height="100" rx="10" fill="#006BB2"/>
<path d="M79.8376 75.0266C79.6948 74.9643 79.5407 74.9321 79.3849 74.932H70.1382V68.1321H79.3849C80.0107 68.1319 80.5179 67.6241 80.5176 66.9983C80.5175 66.8424 80.4853 66.6883 80.423 66.5455C77.6977 60.2542 70.3883 57.3634 64.097 60.0888C63.438 60.3742 62.8049 60.7163 62.2051 61.1113V59.0657H59.9385V62.9926C59.1296 63.8495 58.4462 64.8168 57.9087 65.8655H48.6054V57.6162L54.63 55.608C55.093 55.4537 55.4054 55.0205 55.4052 54.5324V51.1325H61.0718C64.1997 51.1362 66.7346 53.6711 66.7383 56.7991H69.0049C69 52.4198 65.451 48.8709 61.0718 48.8659H53.1386V45.0659C56.6404 43.0441 58.7998 39.3097 58.8052 35.2662V29.5997H64.4717V27.3331H58.8052V22.7998C58.8015 19.0459 55.7593 16.0037 52.0053 16H42.9389C39.1849 16.0037 36.1427 19.0459 36.139 22.7998V27.3331H31.6058C30.9799 27.3331 30.4725 27.8405 30.4725 28.4664V35.2662C30.4725 35.8921 30.9799 36.3995 31.6058 36.3995H32.7391V42.0661C32.7391 42.4449 32.9282 42.7988 33.2434 43.009L36.6433 45.2756L37.9013 43.3898L35.0057 41.4597V36.3995H36.1968C36.5671 40.0212 38.6534 43.2447 41.8055 45.0659V48.8659H33.8724C29.4931 48.8709 25.9442 52.4198 25.9392 56.7991H28.2059C28.2095 53.6711 30.7445 51.1362 33.8724 51.1325H39.5389V54.5324C39.5388 55.0205 39.8512 55.4537 40.3141 55.608L46.3388 57.6162V65.8655H37.0355C36.498 64.8168 35.8146 63.8495 35.0057 62.9926V59.0657H32.7391V61.1056C26.9751 57.3504 19.2583 58.9788 15.5029 64.7427C11.7477 70.5067 13.3761 78.2235 19.14 81.9789C21.1629 83.2968 23.525 83.9984 25.9392 83.9984C30.6215 83.9955 34.9072 81.3692 37.0355 77.1986H57.9087C61.0327 83.3271 68.5332 85.7627 74.6617 82.6388C77.2333 81.3279 79.2699 79.1646 80.423 76.5186C80.6734 75.945 80.4114 75.2769 79.8376 75.0266ZM36.139 34.1329H32.7391V29.5997H36.139V34.1329ZM53.1386 53.7153L50.2475 54.6798L52.6116 51.1325H53.1386V53.7153ZM44.0722 48.8659V46.0768C46.2852 46.7734 48.6589 46.7734 50.872 46.0768V48.8659H44.0722ZM38.4056 22.7998C38.4056 20.2962 40.4352 18.2666 42.9389 18.2666H52.0053C54.5089 18.2666 56.5385 20.2962 56.5385 22.7998V27.3331H38.4056V22.7998ZM38.4056 35.2662V29.5997H56.5385V35.2662C56.5385 40.2735 52.4793 44.3327 47.4721 44.3327C42.4648 44.3327 38.4056 40.2735 38.4056 35.2662ZM41.8055 53.7153V51.1325H42.3325L44.6966 54.6798L41.8055 53.7153ZM45.0559 51.1325H49.8883L47.4721 54.7591L45.0559 51.1325ZM63.3493 80.019C61.7231 78.9341 60.4435 77.4041 59.6631 75.612C59.4829 75.1992 59.0754 74.9323 58.625 74.932H36.3192C35.8687 74.9323 35.4613 75.1992 35.2811 75.612C33.0278 80.7749 27.0159 83.1336 21.853 80.8803C16.69 78.627 14.3313 72.6151 16.5846 67.4522C18.2078 63.7329 21.8813 61.3297 25.9392 61.3323C29.9925 61.3348 33.6598 63.7372 35.2811 67.4522C35.4613 67.865 35.8687 68.1319 36.3192 68.1321H58.625C59.0753 68.1319 59.4829 67.865 59.6631 67.4522C61.9094 62.2938 67.9121 59.9329 73.0705 62.1793C74.8627 62.9597 76.3927 64.2394 77.4775 65.8655H69.0049C68.379 65.8655 67.8716 66.373 67.8716 66.9988V76.0653C67.8716 76.6912 68.379 77.1986 69.0049 77.1986H77.4775C74.355 81.8789 68.0296 83.1415 63.3493 80.019Z" fill="#EBEBEB"/>
<path d="M32.1894 67.1609L26.5229 63.761C26.1638 63.5452 25.7147 63.5452 25.3556 63.761L19.689 67.1609C19.3526 67.363 19.1446 67.7248 19.1394 68.1174L19.0453 75.2946C19.0395 75.7213 19.2738 76.1152 19.6516 76.3135L25.4134 79.336C25.7636 79.5193 26.184 79.5069 26.5229 79.3032L32.1894 75.9032C32.5304 75.6984 32.7389 75.3298 32.7391 74.932V68.1321C32.7391 67.7343 32.5304 67.3657 32.1894 67.1609ZM30.4724 74.2905L25.9018 77.0331L21.3199 74.6294L21.3981 68.7793L25.9392 66.0536L30.4724 68.7736V74.2905Z" fill="#EBEBEB"/>
<path d="M58.8051 70.3988H36.139V72.6654H58.8051V70.3988Z" fill="#EBEBEB"/>
<path d="M48.6054 31.8663H46.3388V37.5328H48.6054V31.8663Z" fill="#EBEBEB"/>
<path d="M57.6718 61.3323H50.872V63.5989H57.6718V61.3323Z" fill="#EBEBEB"/>
</svg>
