<svg width="124" height="176" viewBox="0 0 124 176" fill="none" xmlns="http://www.w3.org/2000/svg">
<path fill-rule="evenodd" clip-rule="evenodd" d="M19.1164 38.8789C25.3164 33.3789 34.8164 33.9789 40.3164 40.0789C44.7164 45.1789 45.2164 52.3789 41.4164 57.9789C40.1164 57.0789 37.9164 57.8789 37.0164 59.1789C39.9164 46.8789 28.6164 37.6789 18.5164 39.3789C18.9164 38.8789 18.6164 39.2789 19.1164 38.8789ZM32.8164 61.7789C32.8164 61.6789 32.8164 61.5789 32.8164 61.5789C31.4164 52.6789 23.2164 49.6789 18.5164 49.5789C17.3164 49.5789 10.9164 49.1789 6.31639 53.0789C6.31639 53.1789 6.31639 53.1789 6.31639 53.1789C5.71639 49.6789 10.0164 41.3789 19.9164 41.3789C20.2164 41.3789 20.5164 41.3789 20.7164 41.3789C32.2164 41.3789 37.7164 54.3789 32.7164 61.6789C32.8164 61.7789 32.8164 61.7789 32.8164 61.7789ZM45.0164 56.9789C48.7164 50.0789 47.2164 37.9789 36.5164 34.3789C39.4164 33.0789 40.4164 32.5789 45.8164 31.9789C47.0164 33.7789 49.7164 35.5789 51.6164 36.1789C51.0164 37.5789 51.7164 38.8789 52.9164 39.6789C53.0164 39.6789 53.0164 39.6789 53.0164 39.6789C53.0164 39.4789 53.0164 39.4789 53.0164 39.3789C52.5164 37.8789 52.8164 36.3789 54.0164 35.2789C54.0164 35.2789 54.0164 35.2789 54.0164 35.1789C50.7164 34.0789 48.3164 31.1789 47.7164 27.8789C46.7164 22.8789 50.0164 17.9789 55.0164 16.9789C55.1164 16.9789 55.1164 16.9789 55.1164 16.9789C54.8164 16.2789 53.9164 15.9789 53.2164 16.2789C53.5164 11.1789 56.9164 6.97889 61.8164 5.67889C62.8164 5.47889 62.8164 5.47889 63.0164 4.17889C63.0164 3.97889 63.1164 3.87889 63.2164 3.77889C63.8164 2.77889 63.9164 2.47889 66.0164 2.57889C67.2164 2.57889 68.6164 2.77889 69.0164 3.67889C69.2164 4.67889 69.0164 5.67889 70.2164 5.87889C75.3164 7.17889 78.7164 12.0789 78.0164 17.3789C78.0164 17.3789 78.0164 17.3789 78.0164 17.4789C77.9164 17.4789 77.9164 17.4789 77.9164 17.4789C77.3164 17.2789 76.7164 17.3789 76.3164 17.8789C76.3164 17.8789 76.3164 17.8789 76.4164 17.8789C80.4164 19.1789 82.9164 22.9789 82.7164 27.2789C82.5164 30.6789 79.6164 34.5789 77.3164 34.6789C76.5164 34.7789 76.8164 35.8789 77.6164 35.8789C78.5164 37.0789 78.7164 38.5789 78.0164 39.8789C78.1164 39.8789 78.2164 39.8789 78.4164 39.8789C79.9164 38.9789 80.5164 37.0789 79.6164 35.4789C81.7164 34.3789 83.4164 32.8789 84.4164 30.5789C84.6164 30.5789 84.9164 30.5789 85.1164 30.5789C90.2164 31.4789 94.0164 35.2789 95.0164 40.2789C95.2164 41.1789 95.2164 41.9789 95.2164 42.8789V42.9789C94.7164 49.6789 79.1164 54.5789 72.6164 56.2789C63.4164 58.5789 54.7164 58.8789 45.0164 56.9789ZM105.516 57.1789C106.916 54.8789 107.716 52.6789 108.116 50.3789C109.116 44.8789 108.816 38.5789 105.316 34.0789C106.116 35.1789 102.916 30.0789 97.8164 28.4789C97.8164 28.4789 97.8164 28.3789 97.8164 28.2789C101.216 27.5789 104.116 28.1789 105.516 28.9789C108.116 30.2789 110.216 32.6789 111.416 35.5789C112.516 37.9789 112.816 40.3789 112.616 42.7789C112.216 48.7789 110.516 53.5789 105.516 57.1789C105.616 57.1789 105.616 57.1789 105.516 57.1789ZM106.316 58.6789C106.316 58.5789 106.316 58.5789 106.316 58.6789C110.616 56.5789 114.116 52.1789 114.916 46.2789C115.416 42.8789 115.716 40.1789 114.216 36.2789C114.216 36.2789 114.216 36.2789 114.216 36.1789H114.316C119.316 38.5789 121.016 43.8789 120.516 47.3789C119.216 56.6789 110.216 58.6789 106.316 58.6789ZM87.9164 29.4789C89.1164 28.8789 90.4164 28.7789 91.7164 28.8789C100.016 29.5789 106.416 36.1789 106.416 44.4789C106.916 51.2789 104.216 57.1789 98.8164 61.2789C101.016 58.3789 102.716 49.4789 97.2164 44.8789C98.6164 39.3789 96.2164 31.8789 87.9164 29.4789ZM99.1164 63.1789C100.916 62.3789 101.716 61.9789 102.716 60.4789C108.416 61.6789 115.316 59.2789 118.316 56.0789C118.016 60.0789 115.116 63.8789 110.616 65.1789C109.516 65.4789 103.116 66.5789 99.1164 63.1789ZM3.01639 60.9789C4.91639 55.3789 10.8164 51.7789 17.1164 51.8789C24.3164 51.8789 28.9164 55.8789 30.5164 61.4789C25.4164 57.5789 19.1164 58.2789 14.8164 60.4789C9.81639 62.9789 6.61639 68.1789 6.81639 73.4789C3.01639 70.9789 1.61639 65.0789 3.01639 60.9789ZM46.9164 73.8789C47.1164 73.1789 47.0164 72.6789 46.7164 72.1789C46.7164 72.1789 48.6164 70.5789 47.7164 67.7789C46.8164 65.8789 45.4164 66.2789 44.0164 66.5789C43.5164 66.6789 42.8164 66.8789 42.3164 66.8789C43.5164 65.6789 43.7164 64.2789 43.7164 62.6789C43.8164 61.0789 43.0164 59.5789 43.0164 59.5789C46.0164 60.1789 50.5164 60.7789 54.0164 61.0789C59.8164 61.2789 66.4164 60.6789 72.5164 59.2789C79.0164 57.7789 92.5164 53.1789 96.0164 46.7789C98.2164 49.8789 99.5164 53.9789 98.1164 57.5789C94.4164 67.1789 79.6164 72.5789 65.9164 74.2789C58.6164 74.9789 51.5164 74.4789 46.9164 73.8789ZM102.216 67.7789C102.016 69.8789 101.116 71.5789 100.816 72.2789C100.416 73.1789 98.3164 75.9789 97.3164 77.7789C97.4164 76.7789 97.2164 75.8789 97.1164 75.0789C98.2164 72.7789 99.0164 68.9789 99.0164 66.3789C99.4164 66.8789 100.916 67.4789 102.216 67.7789ZM30.0164 63.6789C26.9164 64.0789 20.9164 67.2789 19.5164 71.9789C17.8164 80.5789 21.4164 83.8789 23.1164 85.1789C18.2164 85.2789 12.5164 83.7789 10.2164 78.9789C8.61639 75.6789 9.11639 71.2789 10.7164 67.9789C13.8164 61.2789 23.0164 58.9789 30.0164 63.6789ZM21.7164 76.5789C21.9164 72.3789 23.8164 68.3789 29.7164 66.1789C31.4164 65.4789 34.6164 65.5789 38.8164 60.9789C39.5164 60.2789 40.4164 60.9789 40.7164 61.6789C41.1164 62.4789 40.9164 63.7789 40.4164 64.8789C39.1164 67.6789 34.1164 67.3789 33.9164 68.6789C33.7164 69.3789 34.3164 69.3789 34.9164 69.3789C37.6164 69.3789 39.7164 69.3789 42.3164 68.7789C47.7164 67.5789 45.3164 72.2789 40.3164 72.2789C38.4164 72.4789 35.5164 72.2789 33.6164 72.2789C32.9164 72.3789 31.8164 72.8789 31.8164 73.6789C31.7164 74.6789 35.8164 74.4789 37.1164 74.4789C39.1164 74.4789 41.4164 74.0789 43.3164 74.1789C44.6164 74.1789 44.6164 74.9789 44.1164 75.5789C43.2164 76.7789 40.9164 77.1789 39.5164 77.1789C37.3164 77.2789 35.2164 77.1789 33.0164 76.9789C32.3164 76.8789 31.6164 76.8789 31.4164 77.3789C31.2164 77.7789 31.4164 78.1789 31.7164 78.4789C33.0164 79.1789 38.8164 79.0789 40.5164 78.9789C41.7164 78.8789 42.3164 79.1789 41.9164 79.9789C41.5164 80.6789 40.7164 81.0789 40.0164 81.1789C37.7164 81.4789 35.5164 81.4789 33.2164 81.4789C32.5164 81.4789 31.5164 81.6789 31.3164 82.3789C31.1164 83.1789 32.0164 83.2789 32.9164 83.2789C33.2164 83.2789 36.1164 83.0789 37.1164 83.0789C38.6164 82.9789 39.1164 83.2789 38.9164 83.6789C38.8164 84.3789 37.4164 84.8789 35.8164 85.0789C33.6164 85.3789 31.2164 85.5789 29.0164 85.2789C23.2164 84.4789 21.7164 78.3789 21.7164 76.5789ZM42.5164 82.6789C44.3164 81.8789 44.6164 79.7789 44.3164 78.6789C45.7164 77.9789 46.1164 77.0789 46.4164 76.3789C56.0164 77.9789 64.3164 77.5789 73.7164 75.3789C81.5164 73.6789 89.1164 70.7789 96.7164 63.9789C96.7164 64.1789 96.7164 64.2789 96.7164 64.5789C97.5164 72.5789 92.9164 79.2789 83.4164 82.9789C71.8164 87.3789 54.2164 88.9789 42.0164 84.4789C42.3164 83.8789 42.4164 83.5789 42.5164 82.6789ZM91.8164 87.8789C89.4164 86.2789 87.4164 85.2789 84.6164 84.9789C88.6164 83.8789 93.4164 80.6789 94.8164 78.1789C95.1164 81.0789 93.8164 85.9789 91.8164 87.8789ZM108.416 86.2789C108.416 84.6789 109.616 84.2789 109.616 85.7789C109.616 88.6789 108.416 89.0789 108.416 86.2789ZM108.116 82.6789C108.216 81.5789 108.916 81.3789 108.916 82.3789C108.916 84.2789 108.116 84.4789 108.116 82.6789ZM115.316 77.0789C115.116 76.6789 115.016 75.5789 113.616 75.2789C113.616 75.8789 113.916 79.4789 113.916 82.0789C113.816 84.2789 114.616 88.8789 114.216 88.9789C110.716 90.1789 111.416 83.0789 110.616 78.3789C110.016 72.6789 106.516 71.9789 105.116 74.6789C104.516 75.6789 103.916 77.9789 103.416 79.1789C102.416 81.2789 99.1164 81.3789 100.216 78.4789C100.716 77.0789 101.916 75.6789 102.816 74.4789C104.716 71.4789 104.816 68.6789 105.116 68.4789C108.516 68.7789 111.516 68.7789 114.516 66.9789C114.516 68.7789 115.616 70.4789 115.916 72.2789C116.016 73.4789 116.116 75.9789 115.316 77.0789ZM33.5164 88.1789C36.4164 87.7789 37.9164 87.4789 39.1164 86.5789C45.7164 89.3789 53.9164 90.7789 64.1164 89.5789H64.2164C64.2164 89.6789 64.2164 89.6789 64.2164 89.7789C63.1164 90.3789 59.4164 93.3789 59.3164 99.2789C59.3164 99.3789 59.3164 99.3789 59.3164 99.3789C48.4164 99.3789 34.3164 93.8789 33.5164 88.1789ZM79.4164 93.2789C79.3164 93.2789 79.2164 93.2789 79.0164 93.2789C68.0164 93.2789 63.1164 97.3789 61.2164 101.179H61.1164C61.1164 100.979 61.1164 100.679 61.1164 100.479C61.1164 91.3789 70.9164 87.1789 79.2164 87.1789C79.4164 87.1789 79.8164 87.1789 80.1164 87.1789C92.9164 87.1789 95.8164 96.7789 94.3164 103.279C94.3164 103.279 94.2164 103.279 94.1164 103.279C93.4164 99.1789 88.8164 92.9789 79.4164 93.2789ZM37.3164 95.4789C37.4164 95.4789 37.4164 95.4789 37.3164 95.4789C39.7164 97.4789 47.5164 101.779 58.9164 101.879H59.0164C59.1164 101.879 59.2164 102.079 59.2164 102.779C58.9164 103.479 57.9164 104.879 57.6164 107.379C57.6164 107.479 42.5164 108.879 37.4164 95.6789C37.3164 95.6789 37.3164 95.5789 37.3164 95.4789ZM90.2164 115.879C90.2164 108.179 83.6164 104.279 76.7164 103.879C67.3164 103.379 62.5164 108.379 62.0164 113.379C57.6164 109.079 62.6164 96.2789 77.9164 96.2789C78.1164 96.2789 78.4164 96.2789 78.6164 96.2789C93.0164 96.2789 95.2164 110.779 90.2164 115.879ZM39.9164 104.479C39.9164 104.279 39.9164 104.279 39.9164 104.079C42.0164 107.579 49.6164 110.879 57.4164 110.379C57.6164 111.779 57.8164 113.579 59.3164 114.779C59.3164 114.779 59.3164 114.779 59.3164 114.879C59.3164 115.579 59.3164 115.579 59.3164 116.179C59.3164 116.179 58.6164 116.879 58.5164 118.079C50.9164 118.179 40.1164 113.479 39.9164 104.479ZM46.9164 122.379C44.8164 121.079 42.6164 118.779 42.8164 114.779V114.679C46.8164 119.779 54.2164 120.579 58.0164 120.379C58.0164 120.479 58.0164 120.479 58.0164 120.479C58.0164 121.079 58.3164 121.079 58.3164 121.679C58.3164 121.779 58.3164 121.879 58.3164 121.879C57.7164 122.779 57.6164 123.379 57.5164 123.979C57.5164 124.079 57.5164 124.079 57.5164 124.179C53.9164 124.679 49.6164 124.279 46.9164 122.379ZM64.6164 113.879C66.7164 102.379 88.4164 104.579 88.2164 117.779C88.1164 121.779 86.1164 124.179 83.5164 125.479C79.1164 127.679 75.2164 127.579 71.1164 125.279C66.3164 122.579 64.0164 117.279 64.6164 113.879ZM42.7164 122.079C47.6164 128.179 55.9164 126.879 56.9164 126.579C56.2164 129.579 56.7164 131.979 56.7164 131.979C55.0164 132.179 52.9164 132.879 48.7164 131.379C41.7164 128.879 42.2164 123.679 42.7164 122.079ZM71.4164 134.179C63.7164 131.879 59.0164 123.279 61.8164 116.879C61.8164 116.879 62.3164 116.179 62.4164 116.179C64.0164 131.979 84.1164 131.779 89.0164 124.379C89.0164 124.379 89.0164 124.379 89.0164 124.479C88.9164 133.079 80.8164 137.079 71.4164 134.179ZM45.0164 131.679C48.3164 135.679 56.5164 134.679 57.3164 134.379C57.7164 135.979 58.2164 136.979 59.0164 137.879C56.9164 138.679 56.0164 139.179 52.6164 138.879C49.3164 138.579 45.0164 135.179 45.0164 131.679ZM84.2164 135.879C80.8164 142.679 72.8164 142.379 69.5164 141.679C62.4164 139.979 58.0164 135.379 59.7164 126.979C62.7164 135.679 75.3164 140.079 84.2164 135.879ZM60.4164 140.079C60.4164 144.579 60.0164 146.379 57.3164 149.179C54.3164 152.179 51.5164 157.379 51.5164 157.379C47.4164 155.679 47.3164 153.379 48.1164 150.779C48.9164 147.679 51.6164 144.279 50.8164 140.279C52.4164 141.479 58.5164 141.179 60.4164 140.079ZM55.0164 169.079C53.3164 167.479 51.5164 164.079 54.8164 157.179C56.9164 153.479 59.6164 150.579 60.8164 149.079C62.4164 146.979 63.2164 144.079 63.4164 141.579C63.4164 141.579 63.4164 141.579 63.5164 141.579C65.2164 142.879 69.8164 144.479 73.5164 144.379C73.6164 144.379 73.6164 144.379 73.6164 144.379C73.6164 144.379 73.6164 144.479 73.6164 144.579C71.7164 148.979 71.5164 152.079 72.0164 159.979C72.0164 162.879 72.6164 166.279 70.4164 168.279C68.8164 169.679 64.3164 169.579 62.6164 169.479C61.9164 169.479 60.6164 169.679 62.6164 170.179C65.8164 170.879 66.9164 170.679 69.5164 170.079C69.5164 170.079 69.5164 170.079 69.6164 170.079C64.9164 174.379 58.1164 171.879 55.0164 169.079ZM53.9164 172.979C49.0164 169.679 49.1164 164.479 50.4164 159.379C48.3164 158.179 43.5164 156.079 45.5164 150.979C46.7164 147.879 48.6164 143.179 48.8164 141.679C48.6164 140.579 48.4164 140.379 46.6164 138.679C43.4164 135.679 42.6164 134.079 42.6164 130.179C40.2164 127.579 39.1164 122.479 40.6164 120.079C40.7164 119.979 40.8164 119.879 40.8164 119.779C40.4164 118.879 39.6164 116.279 39.6164 112.979C39.6164 112.979 39.6164 112.879 39.6164 112.779C37.3164 109.779 36.4164 105.979 36.6164 101.379C35.2164 100.079 33.1164 96.5789 33.1164 92.1789C33.1164 91.9789 31.1164 89.2789 30.4164 88.0789C28.4164 87.8789 27.9164 87.7789 26.1164 86.8789C19.2164 88.4789 8.21639 86.1789 6.91639 76.4789C-1.68361 72.2789 -1.88361 60.3789 4.21639 54.2789C2.81639 47.4789 9.91639 40.9789 15.1164 39.5789C17.3164 35.7789 22.5164 31.5789 32.7164 33.0789C35.7164 31.7789 41.1164 29.7789 45.1164 29.6789C43.6164 24.9789 44.9164 18.4789 50.4164 15.9789C50.6164 13.7789 51.9164 5.97889 60.4164 3.17889C61.5164 2.87889 61.1164 0.878885 63.2164 0.178885C63.7164 -0.0211146 67.8164 -0.221115 69.9164 0.578885C71.5164 1.17889 70.9164 2.97889 72.2164 3.97889C74.9164 5.07889 76.7164 6.27889 78.6164 8.97889C79.9164 10.8789 81.2164 13.9789 80.6164 17.6789C83.3164 18.7789 86.0164 23.4789 85.3164 27.6789C89.5164 25.9789 93.4164 26.7789 95.0164 27.0789C105.016 23.6789 111.816 29.5789 113.216 33.3789C113.316 33.3789 113.416 33.4789 113.416 33.4789C118.716 34.6789 124.016 40.0789 123.116 47.8789C122.916 49.5789 122.116 52.7789 120.516 54.3789C121.016 57.6789 120.116 62.5789 116.516 65.7789C116.516 68.0789 117.816 69.2789 118.116 71.5789C118.616 74.1789 118.016 75.9789 117.416 77.5789C115.916 81.7789 116.716 85.7789 116.916 90.1789C117.016 90.8789 114.616 92.3789 111.016 90.3789C106.316 91.0789 107.116 87.7789 106.016 85.3789C104.916 82.7789 103.916 83.0789 102.016 82.9789C98.8164 82.8789 98.1164 81.9789 97.3164 80.8789C97.5164 83.9789 94.9164 88.8789 94.2164 89.7789C98.3164 93.8789 97.9164 104.479 95.2164 106.279C95.8164 112.279 93.7164 116.779 90.5164 118.979C90.6164 120.079 90.7164 119.879 90.5164 121.079C92.9164 126.879 89.8164 131.279 87.5164 134.079C86.6164 141.879 79.8164 143.679 77.1164 144.079C74.7164 147.479 74.5164 153.679 74.8164 156.579C75.1164 159.979 75.7164 164.279 74.6164 168.679C72.6164 176.679 60.8164 177.479 53.9164 172.979ZM70.8164 16.1789C72.1164 16.2789 72.9164 18.9789 72.9164 20.0789C72.9164 21.2789 72.9164 20.4789 72.9164 20.6789C73.1164 20.0789 73.2164 20.0789 73.3164 18.5789C73.5164 16.8789 72.5164 13.9789 71.1164 13.8789C69.6164 13.6789 68.3164 15.7789 68.2164 18.1789C68.0164 18.8789 68.2164 19.6789 68.3164 20.3789C68.3164 20.1789 68.3164 20.9789 68.3164 19.8789C68.4164 18.7789 69.6164 16.0789 70.8164 16.1789ZM71.1164 12.3789C73.3164 12.5789 74.9164 15.2789 74.8164 18.5789C74.6164 21.8789 72.7164 24.3789 70.4164 24.3789C68.3164 24.1789 66.5164 21.3789 66.8164 18.0789C66.9164 14.6789 68.8164 12.2789 71.1164 12.3789ZM60.9164 15.8789C62.1164 15.8789 63.2164 18.4789 63.2164 19.5789C63.2164 20.7789 63.2164 20.0789 63.2164 20.1789C63.4164 19.5789 63.5164 19.5789 63.5164 18.0789C63.5164 16.3789 62.3164 13.4789 60.9164 13.4789C59.4164 13.4789 58.3164 15.5789 58.3164 18.0789C58.3164 18.7789 58.4164 19.4789 58.6164 20.1789C58.6164 19.9789 58.6164 20.7789 58.6164 19.6789C58.5164 18.4789 59.5164 15.8789 60.9164 15.8789ZM60.9164 11.9789C63.2164 11.9789 64.9164 14.5789 64.9164 17.9789C64.9164 21.1789 63.2164 23.7789 60.9164 23.7789C58.8164 23.7789 56.9164 21.1789 56.9164 17.9789C56.9164 14.6789 58.7164 11.9789 60.9164 11.9789ZM61.0164 29.9789C60.2164 29.1789 58.6164 28.7789 57.5164 29.5789C56.8164 30.0789 56.3164 29.8789 56.8164 29.2789C57.2164 28.5789 57.7164 28.0789 57.7164 27.4789C57.7164 26.4789 58.6164 26.2789 58.9164 27.0789C59.3164 28.2789 60.4164 28.1789 61.6164 27.7789C64.6164 27.0789 68.6164 27.5789 70.4164 27.9789C71.4164 28.1789 72.5164 26.2789 72.6164 28.0789C72.6164 28.4789 72.7164 28.7789 72.6164 29.2789C72.6164 29.3789 72.5164 29.3789 72.5164 29.3789C72.3164 29.5789 72.0164 29.5789 71.8164 29.5789C71.4164 29.3789 71.2164 29.1789 70.6164 29.4789C69.7164 30.1789 68.6164 31.0789 68.0164 31.7789C67.2164 32.4789 66.2164 32.8789 65.4164 32.8789C63.0164 32.5789 61.0164 29.9789 61.0164 29.9789ZM61.7164 28.8789C63.4164 28.0789 67.7164 28.1789 69.6164 28.8789C68.3164 29.6789 67.3164 31.6789 65.3164 31.4789C63.6164 31.3789 61.8164 29.1789 61.7164 28.8789Z" fill="#E1E1E1"/>
</svg>
