<svg width="90" height="65" viewBox="0 0 90 65" fill="none" xmlns="http://www.w3.org/2000/svg">
<path fill-rule="evenodd" clip-rule="evenodd" d="M1.21535 61.1996V65L38.5636 27.9133V25.4889L1.21535 61.1996ZM38.6944 60.4788V64.0171L75.6502 27.9788V25.4889L38.6944 60.4788ZM75.7156 60.0857V63.624L89.9092 52.747L89.9746 0.262097L83.957 6.29032L87.0312 3.40726L86.9658 49.6673L75.7156 60.0857ZM53.8037 34.9244V0L50.5333 3.34173V38.0696L53.8037 34.9244Z" fill="#E1E1E1"/>
<path fill-rule="evenodd" clip-rule="evenodd" d="M0.888306 49.995V61.5272L38.5636 25.4234V60.5444L75.6502 25.4889L75.5847 60.2167L86.9004 49.6673L86.9658 3.40726L50.5333 38.0696V2.88306L0.888306 49.995Z" fill="#E1E1E1"/>
</svg>
