<svg width="107" height="95" viewBox="0 0 107 95" fill="none" xmlns="http://www.w3.org/2000/svg">
<path d="M71.9154 29.1653L55.5162 1.19425C55.0775 0.446287 54.3027 0 53.4428 0H53.442C52.582 0.000211111 51.8069 0.447132 51.3691 1.19531L34.9871 29.1664C34.5384 29.9325 34.5384 30.8846 34.9873 31.6507L51.3693 59.6037C51.8075 60.3516 52.5822 60.7984 53.442 60.7988H53.443C54.3024 60.7986 55.0773 60.3525 55.5158 59.6049L58.1785 55.0661C58.6197 54.3139 58.3744 53.3426 57.6307 52.8965C56.8873 52.4506 55.9263 52.6985 55.4851 53.4504L53.443 56.931L37.8992 30.4081L53.443 3.86839L69.0034 30.4081L59.0338 47.4019C58.5926 48.1539 58.8379 49.1254 59.5816 49.5715C60.3252 50.0174 61.286 49.7697 61.7272 49.0175L71.915 31.652C72.3652 30.885 72.3654 29.9319 71.9154 29.1653Z" fill="#E1E1E1"/>
<path d="M52.0572 62.733C51.6196 61.9861 50.8456 61.5396 49.987 61.5385L26.7988 61.509H26.7967C25.9327 61.509 25.2317 62.2166 25.2307 63.0904C25.2297 63.9648 25.93 64.6746 26.7946 64.6756L48.7691 64.7035L34.1258 91.8321L3.62782 91.7702L18.2655 64.6649L20.0438 64.6672H20.0459C20.9099 64.6672 21.6108 63.9596 21.6119 63.086C21.6129 62.2116 20.9126 61.5018 20.048 61.5005L17.8404 61.4976H17.8379C16.9555 61.4976 16.1449 61.9838 15.7221 62.7668L0.298152 91.329C-0.113594 92.0909 -0.0979346 92.9919 0.339284 93.739C0.776712 94.4861 1.5503 94.9331 2.40866 94.9348L34.5489 94.9998C34.5505 94.9998 34.552 94.9998 34.5535 94.9998C35.436 94.9998 36.2466 94.5136 36.6692 93.7301L52.0996 65.1433C52.511 64.3809 52.4951 63.4799 52.0572 62.733Z" fill="#E1E1E1"/>
<path d="M106.606 91.3292L91.1815 62.7668C90.7587 61.9836 89.9481 61.4976 89.0653 61.4976H89.0628L56.9166 61.5385C56.0578 61.5396 55.2836 61.9863 54.8457 62.7334C54.4079 63.4805 54.3924 64.3816 54.804 65.1435L70.234 93.7302C70.6568 94.5136 71.4671 95 72.3497 95C72.3514 95 72.3531 95 72.3543 95L93.5423 94.9571C94.4072 94.9555 95.1068 94.2451 95.1052 93.3706C95.1035 92.4973 94.4028 91.7905 93.5392 91.7905C93.5381 91.7905 93.5371 91.7905 93.5361 91.7905L72.7771 91.8325L58.1338 64.7039L88.6375 64.6651L103.275 91.7706L100.287 91.7768C99.4218 91.7785 98.7219 92.4888 98.7238 93.3633C98.7257 94.2366 99.4262 94.9434 100.29 94.9434C100.291 94.9434 100.292 94.9434 100.293 94.9434L104.494 94.9348C105.353 94.9331 106.126 94.4862 106.564 93.739C107.002 92.9919 107.017 92.0909 106.606 91.3292Z" fill="#E1E1E1"/>
</svg>
