<svg width="259" height="55" viewBox="0 0 259 55" fill="none" xmlns="http://www.w3.org/2000/svg">
<path fill-rule="evenodd" clip-rule="evenodd" d="M36.5912 55H52.46V26.2431H36.5912V55ZM239.215 55H255.085V26.2431H239.215V55Z" fill="#E1E1E1"/>
<path fill-rule="evenodd" clip-rule="evenodd" d="M248.004 0.0013721H0V54.87H27.4651V20.4011L248.003 20.4066C249.354 20.429 250.695 20.1817 251.95 19.679C253.204 19.1764 254.346 18.4285 255.309 17.479C256.272 16.5294 257.037 15.3972 257.559 14.1483C258.081 12.8994 258.35 11.5588 258.35 10.2047C258.35 8.85055 258.082 7.50992 257.56 6.26096C257.038 5.012 256.273 3.87968 255.31 2.93001C254.347 1.98033 253.205 1.23229 251.951 0.729488C250.697 0.226683 249.355 -0.0208334 248.004 0.0013721ZM217.539 13.4495H27.4665V6.94192L217.539 6.9599C217.97 6.95099 218.398 7.02833 218.798 7.18739C219.199 7.34645 219.564 7.58404 219.871 7.88622C220.179 8.18841 220.424 8.54913 220.591 8.94724C220.757 9.34535 220.843 9.77285 220.843 10.2047C220.843 10.6365 220.757 11.064 220.591 11.4621C220.424 11.8602 220.179 12.221 219.871 12.5231C219.564 12.8253 219.199 13.0629 218.798 13.222C218.398 13.381 217.97 13.4584 217.539 13.4495Z" fill="#E1E1E1"/>
<path fill-rule="evenodd" clip-rule="evenodd" d="M102.197 44.6784C105.439 43.2065 107.49 39.9333 107.49 36.1345C107.49 30.9578 103.428 26.2431 96.5101 26.2431H63.8575V55H79.7264V45.7215H84.9152L89.6956 55H107.496L102.197 44.6784ZM88.7807 38.756H79.7264V32.6691L88.7807 32.6995C89.5818 32.6995 90.3502 33.0185 90.9167 33.5865C91.4832 34.1544 91.8015 34.9246 91.8015 35.7278C91.8015 36.5309 91.4832 37.3012 90.9167 37.8691C90.3502 38.437 89.5818 38.756 88.7807 38.756ZM117.449 55H152.444V48.5755H133.317V44.3436H152.444V37.41H133.317V33.1782H152.444V26.2431H117.449V55ZM179.13 26.2431H163.26V55H195.202V48.5755H179.13V26.2431ZM216.53 26.2431H200.663V55H232.603V48.5755H216.53V26.2431Z" fill="#E1E1E1"/>
</svg>
