<svg width="100" height="100" viewBox="0 0 100 100" fill="none" xmlns="http://www.w3.org/2000/svg">
<rect width="100" height="100" rx="10" fill="#006BB3"/>
<path d="M77.988 77.9159L74.7071 57.6685C74.6262 57.1686 74.1984 56.8367 73.7517 56.9274C73.305 57.018 73.0087 57.4969 73.0897 57.9967L74.4769 66.5576L63.7819 52.6537L70.9751 50.8568L72.0402 51.5205L72.5026 54.3747C72.5836 54.8746 73.0113 55.2063 73.458 55.1158C73.9047 55.0252 74.201 54.5463 74.1202 54.0465L73.5882 50.764C73.5443 50.493 73.3943 50.2583 73.1793 50.1244L71.5012 49.0789L62.1057 43.2253L62.1046 43.2246C62.073 43.205 62.0406 43.1881 62.0074 43.1735C61.997 43.169 61.9864 43.1659 61.9758 43.1619C61.9528 43.1528 61.9296 43.1441 61.906 43.1374C61.8927 43.1336 61.8792 43.1314 61.8657 43.1285C61.8446 43.1238 61.8234 43.1192 61.802 43.1164C61.7876 43.1144 61.7733 43.1138 61.7587 43.1128C61.738 43.1113 61.7174 43.1101 61.6967 43.1104C61.6819 43.1105 61.6673 43.1117 61.6525 43.1127C61.6322 43.1142 61.6118 43.1162 61.5915 43.1194C61.5767 43.1217 61.562 43.1247 61.5473 43.128C61.5274 43.1324 61.5077 43.1375 61.488 43.1435C61.4732 43.1481 61.4586 43.153 61.444 43.1583C61.425 43.1656 61.4062 43.1738 61.3875 43.1826C61.3731 43.1894 61.3587 43.1962 61.3444 43.204C61.3382 43.2074 61.3317 43.2098 61.3256 43.2133L59.4478 44.3088C60.8448 41.3935 61.5505 38.57 61.5505 35.8687C61.5505 28.7729 56.3926 23 50.0526 23C43.7127 23 38.5554 28.7729 38.5554 35.8687C38.5554 38.5961 39.2743 41.4483 40.6985 44.3938L38.6752 43.2133C38.669 43.2096 38.6623 43.2072 38.656 43.2038C38.6422 43.1962 38.628 43.1896 38.614 43.183C38.595 43.174 38.5759 43.1657 38.5565 43.1583C38.5422 43.153 38.5277 43.1482 38.5131 43.1437C38.4934 43.1377 38.4736 43.1324 38.4537 43.128C38.439 43.1247 38.4241 43.1217 38.4092 43.1194C38.3892 43.1162 38.3691 43.1143 38.3489 43.1128C38.3338 43.1117 38.3188 43.1106 38.3038 43.1104C38.2836 43.1101 38.2636 43.1113 38.2435 43.1127C38.2284 43.1138 38.2133 43.1144 38.1982 43.1165C38.1778 43.1192 38.1575 43.1237 38.1373 43.1281C38.123 43.1313 38.1085 43.1336 38.0943 43.1377C38.0719 43.144 38.0499 43.1525 38.0279 43.1609C38.0164 43.1653 38.0047 43.1688 37.9933 43.1738C37.9602 43.1883 37.928 43.2052 37.8965 43.2247L37.8956 43.2253L26.8219 50.1244C26.6069 50.2583 26.4568 50.493 26.4131 50.764L23.294 70.0121C23.2131 70.5119 23.5095 70.9908 23.9562 71.0814C24.403 71.1724 24.8306 70.8402 24.9116 70.3403L25.8473 64.5658L36.4852 58.2719L35.6297 70.6352L23.9093 76.5252L24.3218 73.979C24.4027 73.4792 24.1064 73.0004 23.6598 72.9097C23.2134 72.8193 22.7854 73.1508 22.7044 73.6508L22.0132 77.916C21.9588 78.2519 22.0751 78.5941 22.3153 78.8045C22.4626 78.9335 22.6415 79 22.8219 79C22.936 79 23.0508 78.9734 23.1585 78.9193L36.4113 72.2593L49.6584 78.9165L49.6594 78.917L49.6639 78.9192C49.6713 78.923 49.6791 78.9256 49.6868 78.9291C49.6989 78.9347 49.7112 78.94 49.7236 78.945C49.7356 78.9498 49.7476 78.9546 49.7598 78.9587C49.7677 78.9614 49.7756 78.9638 49.7835 78.9662C49.7937 78.9694 49.8039 78.9725 49.8144 78.9752C49.8315 78.9796 49.8488 78.983 49.8659 78.9862C49.8741 78.9876 49.8822 78.9898 49.8905 78.9911C49.8961 78.9919 49.9017 78.9928 49.9073 78.9935C49.9347 78.9971 49.9625 78.9989 49.9901 78.9993C49.9936 78.9993 49.9971 79 50.0006 79L50.0058 78.9996C50.0391 78.9994 50.0721 78.9963 50.1052 78.9916C50.1093 78.9909 50.1134 78.9912 50.1176 78.9904C50.1238 78.9895 50.13 78.9871 50.1363 78.986C50.162 78.9813 50.1877 78.975 50.2131 78.9673C50.2201 78.9652 50.2272 78.964 50.2342 78.9618L50.2364 78.9613C50.2387 78.9606 50.2408 78.9592 50.243 78.9584C50.275 78.9474 50.3064 78.9348 50.3373 78.9192L63.5897 72.2592L76.8423 78.9191C76.8551 78.9254 76.8682 78.9302 76.8814 78.9359C76.8943 78.9415 76.907 78.9477 76.9202 78.9526C76.9374 78.959 76.955 78.9638 76.9725 78.9688C76.9833 78.972 76.9938 78.9759 77.0048 78.9785C77.026 78.9836 77.0473 78.9869 77.0686 78.9902C77.0763 78.9913 77.0837 78.9933 77.0914 78.9942C77.1206 78.9978 77.1498 78.9996 77.179 78.9996C77.2189 78.9996 77.2591 78.9951 77.299 78.9886C77.3081 78.9871 77.3173 78.9856 77.3265 78.9836C77.3658 78.9756 77.4047 78.9654 77.4432 78.9507C77.4456 78.9497 77.448 78.9483 77.4504 78.9475C77.4758 78.9376 77.5011 78.9267 77.5258 78.9136C77.533 78.9098 77.5392 78.9044 77.5464 78.9004C77.567 78.8887 77.5869 78.8754 77.6068 78.8615C77.6268 78.848 77.6465 78.8343 77.6653 78.8187C77.6717 78.8133 77.6789 78.8095 77.6854 78.804C77.6998 78.7914 77.7124 78.7768 77.726 78.7631C77.7368 78.7522 77.748 78.7419 77.7584 78.7306C77.7834 78.703 77.8061 78.6736 77.8272 78.6432C77.8312 78.6374 77.8359 78.6324 77.8398 78.6265C77.8643 78.5893 77.886 78.5502 77.9051 78.5096C77.9105 78.4982 77.9145 78.4861 77.9195 78.4743C77.9322 78.4445 77.9439 78.4144 77.9538 78.3831C77.9587 78.3675 77.9626 78.3516 77.9668 78.3354C77.9742 78.3068 77.9805 78.2777 77.9854 78.2482C77.9882 78.2313 77.9909 78.2143 77.9928 78.1972C77.9964 78.166 77.9981 78.1343 77.9988 78.1026C77.9992 78.0875 78.0003 78.0726 77.9999 78.0573C77.9993 78.0105 77.9958 77.9631 77.988 77.9159ZM63.5403 46.2247L62.6977 46.4453L62.6438 45.6662L63.5403 46.2247ZM61.7472 56.5353L58.3146 53.5355C58.077 53.328 57.7572 53.2825 57.4807 53.417L50.8259 56.6589V55.6508C51.3231 55.1975 52.4529 54.1288 53.8069 52.595L61.2222 48.949L61.7472 56.5353ZM60.9827 45.4885L61.0877 47.0055L56.4553 49.2833C56.9153 48.6451 57.3441 48.0104 57.7421 47.3791L60.9827 45.4885ZM39.0185 45.4885L42.4256 47.4763C42.9301 48.2704 43.4828 49.0703 44.0851 49.8754C44.6118 50.5793 45.1367 51.2334 45.6416 51.8321L38.6569 50.7135L39.0185 45.4885ZM36.6353 56.102L26.2201 62.2639L26.7404 59.0526L36.8434 53.0933L36.6353 56.102ZM36.9936 50.925L27.1132 56.7531L27.961 51.5206L37.3575 45.6663L36.9936 50.925ZM37.2755 70.6767L38.0537 59.4305L47.763 75.9471L37.2755 70.6767ZM49.1786 67.131L44.1153 58.1998L49.1786 58.8784V67.131ZM49.1786 57.0252L42.5911 56.1425C42.2762 56.101 41.9672 56.2649 41.798 56.5656C41.6288 56.8661 41.6293 57.2488 41.7994 57.5489L49.1786 70.5652V75.0081L38.2609 56.4358L38.5297 52.5518L47.5984 54.0041C48.2823 54.7145 48.8367 55.242 49.1785 55.557L49.1786 57.0252ZM50.0533 53.975C47.9777 52.0157 40.1994 44.1213 40.1994 35.8688C40.1992 29.7875 44.6197 24.8399 50.0533 24.8399C55.4868 24.8399 59.9073 29.7875 59.9073 35.8688C59.9073 44.1213 52.1289 52.0159 50.0533 53.975ZM50.8225 76.6586V72.5751L53.2797 75.4236L50.8225 76.6586ZM54.8738 74.6225L50.8225 69.9262V58.6668L57.6882 55.3224L61.919 59.0198L62.7256 70.6767L54.8738 74.6225ZM62.826 48.301L65.6758 47.5552L68.8151 49.5111L63.01 50.9611L62.826 48.301ZM64.3716 70.6352L63.7299 61.3622L74.289 75.6192L64.3716 70.6352ZM63.5099 58.1822L63.2772 54.8174L75.0558 70.1304L75.811 74.7911L63.5099 58.1822Z" fill="#EBEBEB"/>
<path d="M50.0533 30.1831C49.5994 30.1831 49.2313 30.5949 49.2313 31.1031C49.2313 31.6112 49.5994 32.023 50.0533 32.023C51.948 32.023 53.4894 33.7482 53.4894 35.8688C53.4894 37.9893 51.948 39.7147 50.0533 39.7147C48.1586 39.7147 46.6172 37.9895 46.6172 35.8688C46.6172 34.8544 46.9669 33.8972 47.6022 33.1735C47.9204 32.8111 47.9158 32.2287 47.5919 31.8727C47.268 31.5166 46.7476 31.5216 46.4296 31.8842C45.4905 32.954 44.9734 34.3691 44.9734 35.8688C44.9734 39.0039 47.2522 41.5546 50.0534 41.5546C52.8546 41.5546 55.1334 39.0039 55.1334 35.8688C55.1333 32.7337 52.8545 30.1831 50.0533 30.1831Z" fill="#EBEBEB"/>
</svg>
