<svg width="100" height="100" viewBox="0 0 100 100" fill="none" xmlns="http://www.w3.org/2000/svg">
<rect width="100" height="100" rx="10" fill="#006BB3"/>
<path d="M42.6719 46.7653H44.8047C44.8047 47.2473 45.172 47.6381 45.625 47.6381C46.078 47.6381 46.4453 47.2473 46.4453 46.7653V45.8925C46.4453 45.4105 46.078 45.0197 45.625 45.0197H42.6719C42.2188 45.0197 41.8516 45.4105 41.8516 45.8925C41.8516 46.3745 42.2188 46.7653 42.6719 46.7653Z" fill="#EBEBEB"/>
<path d="M54.375 47.6381C54.828 47.6381 55.1953 47.2473 55.1953 46.7653H57.3281C57.7812 46.7653 58.1484 46.3745 58.1484 45.8925C58.1484 45.4105 57.7812 45.0197 57.3281 45.0197H54.375C53.922 45.0197 53.5547 45.4105 53.5547 45.8925V46.7653C53.5547 47.2473 53.922 47.6381 54.375 47.6381Z" fill="#EBEBEB"/>
<path d="M36.075 50.7634C36.466 58.5752 42.5622 64.8028 50 64.8028C57.4378 64.8028 63.534 58.5752 63.925 50.7634C66.1081 50.3587 67.7734 48.3293 67.7734 45.8925C67.7734 43.9605 66.7263 42.2849 65.2047 41.4713C65.4457 41.0666 65.5859 40.5876 65.5859 40.074V36.5828C65.5859 35.4383 64.892 34.4636 63.9284 34.1084C63.5699 26.2644 57.4598 20 50 20C42.5402 20 36.4301 26.2644 36.0716 34.1084C35.108 34.4636 34.4141 35.4382 34.4141 36.5828V40.074C34.4141 40.5875 34.5543 41.0666 34.7953 41.4713C33.2737 42.2849 32.2266 43.9605 32.2266 45.8925C32.2266 48.3293 33.8919 50.3587 36.075 50.7634ZM50 63.0572C43.4909 63.0572 38.1469 57.6517 37.7233 50.8383H62.2767C61.8531 57.6517 56.5091 63.0572 50 63.0572ZM62.2767 33.9645H55.1861C55.1202 30.4698 54.6599 27.2025 53.8718 24.6868C53.528 23.5897 53.1563 22.7384 52.7753 22.0813C57.9703 23.3603 61.9151 28.1498 62.2767 33.9645ZM47.2334 22.0793C46.6736 23.0382 46.1866 24.3149 45.7925 25.8841C45.6755 26.3498 45.9355 26.8282 46.3731 26.9526C46.8108 27.0771 47.2605 26.8005 47.3774 26.3348C48.1738 23.1646 49.2684 21.7456 50 21.7456C50.5632 21.7456 51.5075 22.6605 52.3154 25.2389C53.0503 27.5846 53.4805 30.6563 53.5452 33.9645H46.4549C46.4837 32.5008 46.584 31.0755 46.7563 29.7173C46.8169 29.2396 46.502 28.8001 46.053 28.7356C45.6037 28.6709 45.1909 29.0062 45.1303 29.4839C44.9483 30.9184 44.8429 32.4221 44.8138 33.9645H37.7232C38.085 28.1465 42.0342 23.3552 47.2334 22.0793ZM36.0547 36.5828C36.0547 36.1015 36.4226 35.7101 36.875 35.7101H63.125C63.5774 35.7101 63.9453 36.1015 63.9453 36.5828V40.074C63.9453 40.5553 63.5774 40.9467 63.125 40.9467H36.875C36.4226 40.9467 36.0547 40.5553 36.0547 40.074V36.5828ZM36.0547 42.8143V44.1469C36.0547 44.629 36.422 45.0197 36.875 45.0197C37.328 45.0197 37.6953 44.629 37.6953 44.1469V42.6923H62.3047V44.1469C62.3047 44.629 62.672 45.0197 63.125 45.0197C63.578 45.0197 63.9453 44.629 63.9453 44.1469V42.8143C65.2062 43.1953 66.1328 44.4305 66.1328 45.8925C66.1328 47.3545 65.2062 48.5897 63.9453 48.9707V47.6381H62.3047V49.0927H37.6953V47.6381H36.0547V48.9707C34.7938 48.5897 33.8672 47.3545 33.8672 45.8925C33.8672 44.4305 34.7938 43.1953 36.0547 42.8143Z" fill="#EBEBEB"/>
<path d="M70.6172 66.5483H29.3828C25.3119 66.5483 22 70.072 22 74.4034V78.1272C22 78.6092 22.3673 79 22.8203 79H77.1797C77.6327 79 78 78.6092 78 78.1272V74.4034C78 70.072 74.6881 66.5483 70.6172 66.5483ZM29.3828 68.2939H70.6172C72.215 68.2939 73.6621 68.9925 74.704 70.1171H25.296C26.3379 68.9925 27.785 68.2939 29.3828 68.2939ZM24.1628 71.8626H75.8372C76.0819 72.4295 76.2473 73.0423 76.3185 73.6858H23.6815C23.7527 73.0422 23.9181 72.4294 24.1628 71.8626ZM76.3594 77.2544H23.6406V75.4313H76.3594V77.2544Z" fill="#EBEBEB"/>
</svg>
