<svg width="100" height="100" viewBox="0 0 100 100" fill="none" xmlns="http://www.w3.org/2000/svg">
<rect width="100" height="100" rx="10" fill="#006BB2"/>
<path d="M68.2335 28.3358L71.3558 22.9046C71.4985 22.6563 71.5368 22.3614 71.4621 22.0849C71.3875 21.8084 71.206 21.5729 70.9578 21.4301L66.543 18.8941C66.2946 18.7515 65.9997 18.7133 65.7232 18.7881C65.4467 18.8629 65.2112 19.0444 65.0686 19.2928L61.9511 24.7185C59.1403 23.5061 56.1667 22.713 53.1254 22.3646V19.0632H55.3164C55.6028 19.0632 55.8776 18.9494 56.0801 18.7469C56.2827 18.5443 56.3965 18.2696 56.3965 17.9831V12.8926C56.3965 12.7507 56.3686 12.6102 56.3144 12.4792C56.2601 12.3481 56.1806 12.229 56.0803 12.1287C55.98 12.0284 55.8609 11.9488 55.7298 11.8946C55.5987 11.8403 55.4582 11.8124 55.3164 11.8125H43.6836C43.5418 11.8124 43.4013 11.8403 43.2702 11.8946C43.1391 11.9488 43.02 12.0284 42.9197 12.1287C42.8194 12.229 42.7398 12.3481 42.6856 12.4792C42.6313 12.6102 42.6035 12.7507 42.6035 12.8926V17.9831C42.6035 18.2696 42.7173 18.5443 42.9199 18.7469C43.1224 18.9494 43.3972 19.0632 43.6836 19.0632H45.8746V22.3615C42.8333 22.7099 39.8597 23.503 37.0489 24.7154L33.9314 19.2897C33.8609 19.1667 33.7667 19.0587 33.6544 18.9721C33.5421 18.8855 33.4138 18.8218 33.2769 18.7848C33.1399 18.7477 32.997 18.7381 32.8563 18.7563C32.7157 18.7745 32.58 18.8203 32.457 18.891L28.0422 21.427C27.794 21.5698 27.6125 21.8053 27.5379 22.0818C27.4632 22.3583 27.5015 22.6532 27.6442 22.9015L30.7665 28.3358C25.4308 32.279 21.4754 37.8052 19.4636 44.1275C17.4518 50.4497 17.4863 57.2456 19.5621 63.5471C21.6379 69.8486 25.6491 75.3344 31.0245 79.2233C36.4 83.1121 42.8654 85.2056 49.5 85.2056C56.1346 85.2056 62.6 83.1121 67.9755 79.2233C73.3509 75.3344 77.3621 69.8486 79.4379 63.5471C81.5137 57.2456 81.5482 50.4497 79.5364 44.1275C77.5246 37.8052 73.5692 32.279 68.2335 28.3358ZM66.4035 21.2999L68.9445 22.7633L66.4461 27.112C65.6232 26.5861 64.777 26.0981 63.9076 25.648L66.4035 21.2999ZM44.7637 13.9727H54.2363V16.9031H44.7637V13.9727ZM48.0348 19.0632H50.9652V22.1843C50.4795 22.1615 49.9938 22.1461 49.5 22.1461C49.0062 22.1461 48.5205 22.1609 48.0348 22.1837V19.0632ZM30.0555 22.7633L32.5965 21.3036L35.0924 25.648C34.2221 26.0973 33.376 26.5853 32.5539 27.112L30.0555 22.7633ZM49.5 83.0273C43.6931 83.0273 38.0165 81.3053 33.1883 78.0792C28.36 74.853 24.5968 70.2675 22.3746 64.9026C20.1524 59.5377 19.571 53.6343 20.704 47.9389C21.8369 42.2436 24.6332 37.0121 28.7394 32.906C32.8456 28.8 38.0771 26.0037 43.7725 24.8709C49.4678 23.7381 55.3712 24.3196 60.7361 26.5419C66.101 28.7642 70.6864 32.5275 73.9124 37.3558C77.1385 42.1842 78.8604 47.8608 78.8602 53.6677C78.8512 61.4517 75.755 68.9143 70.2509 74.4184C64.7467 79.9224 57.284 83.0185 49.5 83.0273Z" fill="#EBEBEB"/>
<path d="M70.7362 65.8189C72.8722 62.1016 73.9908 57.887 73.9791 53.5998C73.9674 49.3126 72.8258 45.1041 70.6695 41.3986C70.6552 41.3617 70.6387 41.3256 70.6202 41.2906C70.601 41.2618 70.5804 41.234 70.5584 41.2073C68.4334 37.6323 65.4385 34.6531 61.8524 32.5469C61.8229 32.5226 61.792 32.5002 61.7598 32.4796C61.7248 32.4615 61.6887 32.4454 61.6518 32.4315C57.9348 30.2953 53.7205 29.1767 49.4334 29.1883C45.1464 29.1999 40.9381 30.3413 37.2328 32.4975C37.1953 32.5124 37.1586 32.5293 37.1229 32.5481C37.0945 32.5673 37.0671 32.5879 37.0408 32.6099C33.4654 34.7348 30.4855 37.7298 28.3786 41.3159C28.3274 41.3743 28.2884 41.4423 28.2638 41.5159C26.1278 45.233 25.0092 49.4475 25.0209 53.7346C25.0326 58.0218 26.1742 62.2301 28.3305 65.9355C28.3449 65.9726 28.3614 66.0089 28.3798 66.0441C28.3934 66.0676 28.4138 66.0849 28.4286 66.1059C30.5539 69.6893 33.5528 72.6757 37.1451 74.786C37.1753 74.8105 37.2068 74.8334 37.2396 74.8545C37.2667 74.8699 37.2963 74.8761 37.3241 74.8897C41.0478 77.0344 45.272 78.1575 49.5692 78.1453C53.8664 78.133 58.0842 76.9859 61.7956 74.8199C61.8221 74.807 61.8505 74.8014 61.8765 74.786C61.9024 74.7706 61.9308 74.7459 61.9585 74.7243C65.5421 72.5947 68.5273 69.5913 70.635 65.9948C70.6516 65.9707 70.6726 65.9528 70.6874 65.9269C70.7061 65.892 70.7223 65.8559 70.7362 65.8189ZM61.6975 72.3438L60.3094 69.9781C60.1646 69.7309 59.9274 69.5514 59.6502 69.4791C59.373 69.4067 59.0784 69.4475 58.8313 69.5924C58.5841 69.7372 58.4046 69.9743 58.3322 70.2515C58.2599 70.5288 58.3006 70.8233 58.4455 71.0705L59.8354 73.4418C56.9705 74.9476 53.8105 75.8076 50.5776 75.9611V73.2054C50.5776 72.9189 50.4638 72.6442 50.2613 72.4416C50.0587 72.2391 49.784 72.1253 49.4975 72.1253C49.2111 72.1253 48.9364 72.2391 48.7338 72.4416C48.5312 72.6442 48.4174 72.9189 48.4174 73.2054V75.9611C45.2277 75.8081 42.1088 74.9672 39.2744 73.4961L40.6508 71.118C40.7897 70.8704 40.8256 70.578 40.7506 70.3041C40.6755 70.0302 40.4957 69.7969 40.2499 69.6546C40.0041 69.5124 39.7122 69.4727 39.4373 69.5441C39.1625 69.6155 38.9268 69.7922 38.7813 70.0361L37.4068 72.4117C34.7808 70.7109 32.5386 68.481 30.8233 65.8645L33.1914 64.4771C33.4373 64.3317 33.6154 64.0948 33.687 63.8182C33.7586 63.5417 33.7177 63.2481 33.5734 63.0017C33.429 62.7552 33.1929 62.576 32.9167 62.5032C32.6405 62.4304 32.3467 62.4699 32.0996 62.6132L29.7284 64.0031C28.2223 61.1383 27.3622 57.9782 27.2084 54.7453H29.9642C30.2506 54.7453 30.5253 54.6315 30.7279 54.4289C30.9304 54.2264 31.0442 53.9517 31.0442 53.6652C31.0442 53.3788 30.9304 53.104 30.7279 52.9015C30.5253 52.6989 30.2506 52.5851 29.9642 52.5851H27.2084C27.3607 49.3947 28.201 46.275 29.6716 43.4397L32.0503 44.8154C32.2977 44.9515 32.5887 44.9853 32.8607 44.9095C33.1328 44.8336 33.3644 44.6543 33.5058 44.4098C33.6472 44.1653 33.6872 43.8752 33.6173 43.6015C33.5473 43.3279 33.373 43.0925 33.1316 42.9459L30.7566 41.5714C32.4572 38.9464 34.6867 36.705 37.3025 34.9904L38.6906 37.3585C38.836 37.6043 39.0729 37.7825 39.3494 37.8541C39.626 37.9257 39.9196 37.8848 40.166 37.7404C40.4125 37.5961 40.5917 37.36 40.6645 37.0838C40.7373 36.8076 40.6978 36.5138 40.5545 36.2667L39.1646 33.8955C42.0293 32.3893 45.1894 31.5293 48.4224 31.3761V34.1312C48.4224 34.4177 48.5362 34.6924 48.7387 34.895C48.9413 35.0975 49.216 35.2113 49.5025 35.2113C49.7889 35.2113 50.0636 35.0975 50.2662 34.895C50.4688 34.6924 50.5825 34.4177 50.5825 34.1312V31.3761C53.7729 31.5282 56.8927 32.3683 59.728 33.8387L58.3492 36.2179C58.2759 36.3408 58.2278 36.477 58.2076 36.6186C58.1873 36.7602 58.1954 36.9044 58.2314 37.0428C58.2674 37.1813 58.3305 37.3112 58.4171 37.4251C58.5036 37.5389 58.612 37.6345 58.7358 37.7061C58.8596 37.7778 58.9964 37.8241 59.1382 37.8424C59.2801 37.8608 59.4242 37.8508 59.5622 37.813C59.7001 37.7752 59.8292 37.7104 59.9419 37.6223C60.0546 37.5342 60.1487 37.4246 60.2187 37.2999L61.5932 34.9219C64.2193 36.623 66.4616 38.8533 68.1767 41.4702L65.8086 42.8576C65.6855 42.929 65.5778 43.0239 65.4915 43.1371C65.4053 43.2502 65.3422 43.3792 65.3059 43.5167C65.2697 43.6543 65.261 43.7976 65.2803 43.9385C65.2995 44.0795 65.3465 44.2152 65.4184 44.3379C65.4903 44.4607 65.5857 44.568 65.6992 44.6537C65.8127 44.7395 65.942 44.802 66.0797 44.8376C66.2174 44.8733 66.3608 44.8814 66.5016 44.8614C66.6424 44.8415 66.7779 44.794 66.9004 44.7215L69.2722 43.3316C70.7778 46.1967 71.6377 49.3566 71.7916 52.5895H69.0358C68.7494 52.5895 68.4747 52.7033 68.2721 52.9058C68.0695 53.1084 67.9557 53.3831 67.9557 53.6695C67.9557 53.956 68.0695 54.2307 68.2721 54.4333C68.4747 54.6358 68.7494 54.7496 69.0358 54.7496H71.7916C71.6389 57.9392 70.7987 61.0581 69.3284 63.8926L66.9504 62.5163C66.7024 62.3728 66.4075 62.3337 66.1307 62.4076C65.8539 62.4815 65.6178 62.6624 65.4743 62.9104C65.3309 63.1584 65.2918 63.4532 65.3657 63.73C65.4396 64.0068 65.6204 64.2429 65.8684 64.3864L68.2434 65.7609C66.543 68.3866 64.3135 70.6286 61.6975 72.3438Z" fill="#EBEBEB"/>
<path d="M65.79 53.6677C65.79 53.3812 65.6762 53.1065 65.4737 52.9039C65.2711 52.7014 64.9964 52.5876 64.71 52.5876H54.3103C54.1041 51.677 53.6444 50.8434 52.9843 50.1832C52.3241 49.523 51.4906 49.0631 50.5801 48.8567V38.4577C50.5801 38.1713 50.4663 37.8965 50.2637 37.694C50.0612 37.4914 49.7864 37.3776 49.5 37.3776C49.2135 37.3776 48.9388 37.4914 48.7363 37.694C48.5337 37.8965 48.4199 38.1713 48.4199 38.4577V48.8567C47.5582 49.0497 46.7641 49.4705 46.1205 50.0752C45.477 50.6799 45.0076 51.4463 44.7614 52.2943C44.5151 53.1423 44.5011 54.0409 44.7208 54.8963C44.9405 55.7516 45.3857 56.5322 46.0101 57.1567C46.6345 57.7811 47.4151 58.2265 48.2704 58.4462C49.1257 58.666 50.0243 58.6521 50.8724 58.4059C51.7204 58.1598 52.4869 57.6905 53.0916 57.047C53.6964 56.4035 54.1173 55.6095 54.3103 54.7478H64.71C64.9964 54.7476 65.271 54.6337 65.4735 54.4312C65.676 54.2287 65.7899 53.9541 65.79 53.6677ZM49.5 56.4407C48.9514 56.4408 48.415 56.2782 47.9588 55.9735C47.5026 55.6688 47.147 55.2356 46.937 54.7288C46.727 54.2219 46.672 53.6642 46.779 53.1261C46.886 52.588 47.1502 52.0937 47.5381 51.7058C47.926 51.3179 48.4203 51.0537 48.9584 50.9467C49.4965 50.8397 50.0542 50.8947 50.5611 51.1047C51.0679 51.3147 51.5011 51.6703 51.8058 52.1265C52.1105 52.5827 52.2731 53.1191 52.273 53.6677C52.2719 54.4028 51.9793 55.1074 51.4595 55.6272C50.9398 56.147 50.2351 56.4396 49.5 56.4407Z" fill="#EBEBEB"/>
</svg>
