<svg width="39" height="40" viewBox="0 0 39 40" fill="none" xmlns="http://www.w3.org/2000/svg">
<path fill-rule="evenodd" clip-rule="evenodd" d="M33.3178 5.81299C29.6516 2.06641 24.7759 0.00219726 19.5816 0C8.87818 0 0.167188 8.89136 0.162883 19.8196C0.161448 23.313 1.05551 26.7231 2.75489 29.729L0 40L10.2941 37.2437C13.1306 38.823 16.3239 39.6553 19.5737 39.6562H19.5818C30.284 39.6562 38.9959 30.7642 39 19.8354C39.0022 14.5391 36.9842 9.55933 33.3178 5.81299ZM19.5816 36.3088H19.5749C16.6789 36.3076 13.8386 35.5132 11.3602 34.0125L10.7711 33.6553L4.66237 35.291L6.29287 29.2117L5.90898 28.5884C4.29331 25.9653 3.44015 22.9336 3.44158 19.8208C3.44493 10.7375 10.6854 3.34766 19.588 3.34766C23.899 3.34912 27.9515 5.06494 30.9987 8.17896C34.0458 11.293 35.723 15.4321 35.7215 19.8342C35.7177 28.9182 28.4777 36.3088 19.5816 36.3088ZM28.4346 23.9702C27.9496 23.7222 25.564 22.5244 25.1191 22.3589C24.6747 22.1936 24.3508 22.1113 24.0277 22.6069C23.7041 23.1025 22.7744 24.2183 22.4912 24.5486C22.208 24.8792 21.9253 24.9207 21.44 24.6726C20.9547 24.4248 19.3914 23.9016 17.538 22.2144C16.0957 20.9011 15.122 19.2793 14.8388 18.7837C14.5561 18.2876 14.8364 18.0454 15.0517 17.7729C15.5769 17.1072 16.1029 16.4092 16.2646 16.0789C16.4265 15.7483 16.3454 15.459 16.2239 15.2112C16.1029 14.9634 15.1325 12.5256 14.7283 11.5337C14.3342 10.5684 13.9345 10.6987 13.6365 10.6836C13.3537 10.6692 13.0301 10.6663 12.7065 10.6663C12.3832 10.6663 11.8574 10.79 11.4126 11.2861C10.9679 11.782 9.7146 12.98 9.7146 15.4177C9.7146 17.8555 11.4532 20.2104 11.6957 20.541C11.9383 20.8716 15.1172 25.874 19.9843 28.019C21.142 28.5298 22.0456 28.8342 22.7505 29.0625C23.9129 29.4395 24.9703 29.3862 25.8065 29.2588C26.7388 29.1165 28.6769 28.0605 29.0816 26.9038C29.4858 25.7468 29.4858 24.7554 29.3643 24.5486C29.2433 24.342 28.9197 24.2183 28.4346 23.9702Z" fill="#E1E1E1"/>
</svg>
